<?xml version="1.0" encoding="UTF-8"?>
<!DOCTYPE svg PUBLIC "-//W3C//DTD SVG 1.1//EN" "http://www.w3.org/Graphics/SVG/1.1/DTD/svg11.dtd">
<!-- Creator: CorelDRAW -->
<svg xmlns="http://www.w3.org/2000/svg" xml:space="preserve" width="5.1598mm" height="5.1594mm" version="1.1" style="shape-rendering:geometricPrecision; text-rendering:geometricPrecision; image-rendering:optimizeQuality; fill-rule:evenodd; clip-rule:evenodd"
viewBox="0 0 516.02 515.98"
 xmlns:xlink="http://www.w3.org/1999/xlink"
 xmlns:xodm="http://www.corel.com/coreldraw/odm/2003">
 <defs>
  <style type="text/css">
   <![CDATA[
    .fil0 {fill:#F56E1E;fill-rule:nonzero}
   ]]>
  </style>
 </defs>
 <g id="Слой_x0020_1">
  <metadata id="CorelCorpID_0Corel-Layer"/>
  <path class="fil0" d="M128.96 118.87c-1.07,0.13 -2.16,0.2 -3.27,0.2 -1.11,0 -2.2,-0.07 -3.27,-0.2l-30.34 0c-10.58,0 -20.22,4.35 -27.21,11.34 -6.99,6.99 -11.34,16.63 -11.34,27.21l0 7.96 409.59 0 0 -7.96c0,-10.58 -4.35,-20.22 -11.34,-27.21 -6.99,-6.99 -16.63,-11.34 -27.21,-11.34l-31 0c-1.07,0.13 -2.16,0.2 -3.27,0.2 -1.11,0 -2.2,-0.07 -3.27,-0.2l-258.06 0zm-36.88 -52.9l7.15 0 0 -39.5 52.92 0 0 39.5 211.68 0 0 -39.5 52.92 0 0 39.5 7.81 0c25.18,0 48.05,10.28 64.62,26.84 16.56,16.56 26.84,39.43 26.84,64.62l0 267.1c0,25.18 -10.28,48.05 -26.84,64.62 -16.56,16.56 -39.43,26.84 -64.62,26.84l-332.49 0c-25.18,0 -48.05,-10.28 -64.62,-26.84 -16.56,-16.56 -26.84,-39.43 -26.84,-64.62l0 -226.99c-0.41,-1.83 -0.62,-3.74 -0.62,-5.7 0,-1.96 0.21,-3.86 0.62,-5.7l0 -28.71c0,-25.18 10.28,-48.05 26.84,-64.62 16.56,-16.56 39.43,-26.84 64.62,-26.84zm-38.55 152.33l0 206.23c0,10.58 4.35,20.22 11.34,27.21 6.99,6.99 16.63,11.34 27.21,11.34l332.49 0c10.58,0 20.22,-4.35 27.21,-11.34 6.99,-6.99 11.34,-16.63 11.34,-27.21l0 -206.23 -409.59 0zm265.35 147.5c-14.62,0 -26.46,11.84 -26.46,26.45 0,14.62 11.84,26.46 26.46,26.46l0 -52.91zm44.56 52.91c14.62,0 26.46,-11.84 26.46,-26.46 0,-14.61 -11.84,-26.45 -26.46,-26.45l0 52.91zm-44.56 0l44.56 0 0 -52.91 -44.56 0 0 52.91zm-172.56 -52.91c-14.62,0 -26.46,11.84 -26.46,26.45 0,14.62 11.84,26.46 26.46,26.46l0 -52.91zm44.57 52.91c14.61,0 26.46,-11.84 26.46,-26.46 0,-14.61 -11.85,-26.45 -26.46,-26.45l0 52.91zm-44.57 0l44.57 0 0 -52.91 -44.57 0 0 52.91zm172.56 -150.54c-14.62,0 -26.46,11.85 -26.46,26.46 0,14.61 11.84,26.46 26.46,26.46l0 -52.92zm44.56 52.92c14.62,0 26.46,-11.85 26.46,-26.46 0,-14.61 -11.84,-26.46 -26.46,-26.46l0 52.92zm-44.56 0l44.56 0 0 -52.92 -44.56 0 0 52.92zm-172.56 -52.92c-14.62,0 -26.46,11.85 -26.46,26.46 0,14.61 11.84,26.46 26.46,26.46l0 -52.92zm44.57 52.92c14.61,0 26.46,-11.85 26.46,-26.46 0,-14.61 -11.85,-26.46 -26.46,-26.46l0 52.92zm-44.57 0l44.57 0 0 -52.92 -44.57 0 0 52.92zm217.52 -294.63c0,-14.61 11.85,-26.46 26.46,-26.46 14.61,0 26.46,11.85 26.46,26.46l-52.92 0zm-264.6 0c0,-14.61 11.85,-26.46 26.46,-26.46 14.61,0 26.46,11.85 26.46,26.46l-52.92 0z"/>
 </g>
</svg>
