<svg width="29" height="29" viewBox="0 0 29 29" fill="none" xmlns="http://www.w3.org/2000/svg">
<path fill-rule="evenodd" clip-rule="evenodd" d="M0 1C0 0.447715 0.447715 0 1 0H3.92541C4.70123 1.0252e-05 5.45864 0.254434 6.07152 0.728251C6.68492 1.20247 7.11866 1.87016 7.29041 2.62539L7.90375 5.30819L25.577 5.31038C25.9965 5.31198 26.4116 5.40405 26.7921 5.58131C27.1726 5.75863 27.5103 6.0175 27.7782 6.34154C28.0463 6.66576 28.2373 7.04664 28.334 7.45679C28.4308 7.86657 28.4303 8.29244 28.3328 8.702L28.3324 8.70349L27.0849 14.0028L27.0845 14.0045C26.6671 15.7938 25.6302 17.3854 24.1542 18.5227C22.6784 19.6598 20.8494 20.2774 18.968 20.2812H15.6631C13.7189 20.277 11.8327 19.6175 10.3346 18.4101C8.83596 17.2024 7.81914 15.5209 7.47277 13.6546L7.47248 13.6531L6.1274 6.51215L5.34029 3.06923C5.27409 2.7778 5.10413 2.50836 4.84826 2.31054C4.59162 2.11213 4.2661 2.00001 3.92541 2H1C0.447715 2 0 1.55228 0 1ZM8.31253 7.30824L9.43898 13.2885C9.69577 14.6737 10.453 15.9369 11.5896 16.8529C12.7268 17.7694 14.1696 18.2778 15.6666 18.2812L18.9639 18.2813C20.4123 18.2781 21.8126 17.8021 22.9335 16.9384C24.0539 16.0752 24.8273 14.8782 25.137 13.549L26.3864 8.24209L26.3871 8.23899C26.4125 8.1326 26.4126 8.0226 26.3875 7.91617C26.3624 7.80962 26.3119 7.70674 26.2368 7.61594C26.1616 7.52498 26.0633 7.44823 25.9473 7.39416C25.8316 7.34025 25.7029 7.3111 25.5709 7.31038L25.5694 7.31038L8.31253 7.30824ZM10.1253 26.2302C10.1252 26.2307 10.125 26.232 10.125 26.2344C10.125 26.2368 10.1252 26.2381 10.1253 26.2386L10.1258 26.2402C10.1263 26.2413 10.1274 26.2433 10.1296 26.2454C10.1307 26.2465 10.1318 26.2474 10.1327 26.248C10.1336 26.2486 10.1343 26.2489 10.1348 26.2492L10.1364 26.2497L10.1379 26.2499L10.1406 26.25C10.143 26.25 10.1443 26.2498 10.1448 26.2497L10.1464 26.2492C10.1475 26.2487 10.1495 26.2476 10.1517 26.2454C10.1538 26.2433 10.1549 26.2413 10.1554 26.2402L10.1559 26.2386C10.156 26.2381 10.1562 26.2368 10.1562 26.2344C10.1562 26.232 10.156 26.2307 10.1559 26.2302L10.1554 26.2286C10.1549 26.2275 10.1538 26.2255 10.1517 26.2233C10.1495 26.2212 10.1475 26.2201 10.1464 26.2196L10.1448 26.2191C10.1443 26.219 10.143 26.2188 10.1406 26.2188C10.1382 26.2188 10.1369 26.219 10.1364 26.2191L10.1348 26.2196C10.1337 26.2201 10.1317 26.2212 10.1296 26.2233C10.1286 26.2243 10.1278 26.2253 10.1272 26.2262C10.1265 26.2272 10.1261 26.228 10.1258 26.2286L10.1253 26.2302ZM8.125 26.2344C8.125 25.1212 9.02743 24.2188 10.1406 24.2188C11.2538 24.2188 12.1562 25.1212 12.1562 26.2344C12.1562 27.3476 11.2538 28.25 10.1406 28.25C9.02743 28.25 8.125 27.3476 8.125 26.2344ZM24.3438 26.2344C24.3438 26.232 24.344 26.2307 24.3441 26.2302L24.3446 26.2286C24.3451 26.2275 24.3462 26.2255 24.3483 26.2233C24.3496 26.222 24.3509 26.2211 24.3519 26.2204C24.3526 26.22 24.3532 26.2198 24.3536 26.2196L24.3552 26.2191C24.3557 26.219 24.357 26.2188 24.3594 26.2188C24.3618 26.2188 24.3631 26.219 24.3636 26.2191L24.3652 26.2196C24.3663 26.2201 24.3683 26.2212 24.3704 26.2233C24.3726 26.2255 24.3737 26.2275 24.3742 26.2286L24.3747 26.2302C24.3748 26.2307 24.375 26.232 24.375 26.2344C24.375 26.2368 24.3748 26.2381 24.3747 26.2386L24.3742 26.2402C24.3737 26.2413 24.3726 26.2433 24.3704 26.2454C24.3683 26.2476 24.3663 26.2487 24.3652 26.2492L24.3636 26.2497C24.3631 26.2498 24.3618 26.25 24.3594 26.25C24.357 26.25 24.3557 26.2498 24.3552 26.2497L24.3536 26.2492C24.3525 26.2487 24.3505 26.2476 24.3483 26.2454C24.3462 26.2433 24.3451 26.2413 24.3446 26.2402L24.3441 26.2386C24.344 26.2381 24.3438 26.2368 24.3438 26.2344ZM24.3594 24.2188C23.2462 24.2188 22.3438 25.1212 22.3438 26.2344C22.3438 27.3476 23.2462 28.25 24.3594 28.25C25.4726 28.25 26.375 27.3476 26.375 26.2344C26.375 25.1212 25.4726 24.2188 24.3594 24.2188Z" fill="#6E7191"/>
</svg>
