<svg width="16" height="17" viewBox="0 0 16 17" fill="none" xmlns="http://www.w3.org/2000/svg">
<path fill-rule="evenodd" clip-rule="evenodd" d="M5.12069 1.16548C5.54686 0.739366 6.12485 0.5 6.72748 0.5H9.27318C9.87582 0.5 10.4538 0.739366 10.88 1.16548C11.3061 1.5916 11.5456 2.16957 11.5456 2.77224V3.04492H14.7406H15C15.5523 3.04492 16 3.49264 16 4.04492C16 4.59721 15.5523 5.04492 15 5.04492H14.6425L14.2461 13.1319C14.2005 14.0402 13.8075 14.8963 13.1485 15.5231C12.4895 16.1498 11.6148 16.4994 10.7053 16.4995H5.29921C4.38972 16.4994 3.5149 16.1498 2.85588 15.5231C2.19686 14.8963 1.80391 14.0402 1.75832 13.1319L1.35392 5.04492H1C0.447715 5.04492 0 4.59721 0 4.04492C0 3.49264 0.447715 3.04492 1 3.04492H1.25391H4.45508V2.77224C4.45508 2.16957 4.69452 1.5916 5.12069 1.16548ZM6.45508 3.04492H9.54559V2.77224C9.54559 2.70008 9.51692 2.63085 9.46585 2.57978C9.41477 2.52871 9.34547 2.5 9.27318 2.5H6.72748C6.6552 2.5 6.58589 2.52871 6.53482 2.57978C6.48375 2.63085 6.45508 2.70008 6.45508 2.77224V3.04492ZM3.35642 5.04492L3.75581 13.0318C3.77573 13.4276 3.94698 13.8007 4.23421 14.0739C4.52145 14.347 4.90273 14.4995 5.29921 14.4995H10.7052C11.1016 14.4995 11.4829 14.347 11.7702 14.0739C12.0574 13.8007 12.2286 13.4274 12.2486 13.0316L12.6401 5.04492H11.5456V5.04537H4.45508V5.04492H3.35642ZM9.91016 6.86328C10.4624 6.86328 10.9102 7.311 10.9102 7.86328V11.0448C10.9102 11.5971 10.4624 12.0448 9.91016 12.0448C9.35787 12.0448 8.91016 11.5971 8.91016 11.0448V7.86328C8.91016 7.311 9.35787 6.86328 9.91016 6.86328ZM7.08984 7.86328C7.08984 7.311 6.64213 6.86328 6.08984 6.86328C5.53756 6.86328 5.08984 7.311 5.08984 7.86328V11.0448C5.08984 11.5971 5.53756 12.0448 6.08984 12.0448C6.64213 12.0448 7.08984 11.5971 7.08984 11.0448V7.86328Z" fill="#6E7191"/>
</svg>
