<svg width="34" height="39" viewBox="0 0 34 39" fill="none" xmlns="http://www.w3.org/2000/svg">
<path d="M25.942 21.7184H7.843C7.68428 21.7197 7.53242 21.7834 7.42018 21.8956C7.30794 22.0079 7.24431 22.1597 7.243 22.3184V24.7314C7.24431 24.8902 7.30794 25.042 7.42018 25.1543C7.53242 25.2665 7.68428 25.3301 7.843 25.3314H25.943C26.1017 25.3301 26.2536 25.2665 26.3658 25.1543C26.4781 25.042 26.5417 24.8902 26.543 24.7314V22.3224C26.5427 22.1628 26.4794 22.0098 26.3669 21.8967C26.2543 21.7836 26.1016 21.7195 25.942 21.7184ZM30.225 0.430431L26.945 2.79043L24.034 0.690431C23.4184 0.24541 22.6781 0.00585937 21.9185 0.00585938C21.1589 0.00585938 20.4186 0.24541 19.803 0.690431L16.892 2.79043L13.981 0.690431C13.3494 0.278752 12.6191 0.043617 11.866 0.00943142C11.1126 0.0445144 10.3823 0.280693 9.751 0.693431L6.84 2.79043L3.559 0.430431C3.22336 0.188586 2.82744 0.0441414 2.41492 0.013028C2.00239 -0.0180854 1.58929 0.0653417 1.22117 0.254108C0.85305 0.442874 0.544218 0.729644 0.328735 1.08279C0.113253 1.43594 -0.000507483 1.84174 1.70183e-06 2.25543V36.3644C0.000568607 36.7777 0.114989 37.1828 0.3307 37.5353C0.546412 37.8878 0.855074 38.174 1.2228 38.3626C1.59053 38.5511 2.0031 38.6347 2.41522 38.6042C2.82735 38.5737 3.22309 38.4301 3.559 38.1894L6.839 35.8214L9.75 37.9214C10.3656 38.3665 11.1059 38.606 11.8655 38.606C12.6251 38.606 13.3654 38.3665 13.981 37.9214L16.892 35.8214L19.803 37.9214C20.4186 38.3665 21.1589 38.606 21.9185 38.606C22.6781 38.606 23.4184 38.3665 24.034 37.9214L26.945 35.8214L30.225 38.1814C30.56 38.4233 30.9552 38.5679 31.3672 38.5996C31.7791 38.6312 32.1918 38.5485 32.5598 38.3606C32.9278 38.1728 33.2368 37.887 33.4528 37.5348C33.6688 37.1826 33.7834 36.7776 33.784 36.3644V2.25543C33.7841 1.84188 33.6702 1.43631 33.4546 1.08339C33.239 0.730462 32.9303 0.44387 32.5623 0.255171C32.1943 0.0664725 31.7814 -0.0170122 31.369 0.0139107C30.9566 0.0448336 30.5607 0.188965 30.225 0.430431ZM30.165 33.6724L26.945 31.3574L21.915 34.9774L16.885 31.3574L11.855 34.9774L6.825 31.3574L3.62 33.6714V4.93943L6.84 7.25443L11.87 3.63443L16.9 7.25443L21.93 3.63443L26.96 7.25443L30.165 4.93943V33.6724ZM25.942 13.2724H7.843C7.68428 13.2737 7.53242 13.3374 7.42018 13.4496C7.30794 13.5619 7.24431 13.7137 7.243 13.8724V16.2854C7.24431 16.4442 7.30794 16.596 7.42018 16.7083C7.53242 16.8205 7.68428 16.8841 7.843 16.8854H25.943C26.1017 16.8841 26.2536 16.8205 26.3658 16.7083C26.4781 16.596 26.5417 16.4442 26.543 16.2854V13.8764C26.5427 13.7168 26.4794 13.5638 26.3669 13.4507C26.2543 13.3376 26.1016 13.2735 25.942 13.2724Z" fill="#F56E1E"/>
</svg>
