<svg width="32" height="32" viewBox="0 0 32 32" fill="none" xmlns="http://www.w3.org/2000/svg">
<path d="M10.9401 13.4234H20.8512C21.1141 13.4234 21.3663 13.3189 21.5522 13.133C21.7381 12.9471 21.8426 12.695 21.8426 12.432V11.4407C21.8426 11.1778 21.7381 10.9257 21.5522 10.7398C21.3663 10.5538 21.1141 10.4494 20.8512 10.4494H10.9401C10.6772 10.4494 10.4251 10.5538 10.2391 10.7398C10.0532 10.9257 9.94879 11.1778 9.94879 11.4407V12.432C9.94879 12.695 10.0532 12.9471 10.2391 13.133C10.4251 13.3189 10.6772 13.4234 10.9401 13.4234ZM9.94879 18.3789C9.94879 18.6418 10.0532 18.894 10.2391 19.0799C10.4251 19.2658 10.6772 19.3702 10.9401 19.3702H20.8512C21.1141 19.3702 21.3663 19.2658 21.5522 19.0799C21.7381 18.894 21.8426 18.6418 21.8426 18.3789V17.3876C21.8426 17.1247 21.7381 16.8725 21.5522 16.6866C21.3663 16.5007 21.1141 16.3963 20.8512 16.3963H10.9401C10.6772 16.3963 10.4251 16.5007 10.2391 16.6866C10.0532 16.8725 9.94879 17.1247 9.94879 17.3876V18.3789ZM15.8957 25.8821C14.8531 25.8823 13.837 25.5531 12.9926 24.9415L0.0429688 15.5827V28.7852C0.0429688 29.5736 0.356185 30.3298 0.913714 30.8873C1.47124 31.4449 2.22741 31.7581 3.01588 31.7581H28.785C29.5735 31.7581 30.3296 31.4449 30.8872 30.8873C31.4447 30.3298 31.7579 29.5736 31.7579 28.7852V15.5827L18.803 24.9415C17.9587 25.5525 16.9432 25.8817 15.901 25.8821H15.8957ZM30.6185 10.1373C30.0704 9.70776 29.551 9.30255 28.7839 8.72384V5.99003C28.7839 5.20157 28.4707 4.44539 27.9132 3.88787C27.3557 3.33034 26.5995 3.01712 25.811 3.01712H21.0078L20.4481 2.61086C19.4039 1.85017 17.3377 0.0219914 15.901 0.0431509C14.4642 0.0219914 12.3959 1.85017 11.3517 2.6098L10.792 3.01606H5.98985C5.20138 3.01606 4.44521 3.32928 3.88768 3.88681C3.33015 4.44434 3.01694 5.20051 3.01694 5.98897V8.72384C2.25096 9.3015 1.7315 9.7067 1.18241 10.1373C0.846509 10.4319 0.572728 10.7905 0.37708 11.1921C0.181432 11.5938 0.0678465 12.0304 0.0429688 12.4765L0.0429688 13.1367L5.98985 17.432V5.99003H25.8121V17.432L31.759 13.1367V12.4765C31.7587 12.0256 31.6558 11.5807 31.4583 11.1755C31.2607 10.7702 30.9735 10.4152 30.6185 10.1373Z" fill="#6E7191"/>
</svg>
