<svg width="18" height="17" viewBox="0 0 18 17" fill="none" xmlns="http://www.w3.org/2000/svg">
<path d="M8.32639 0.143229L7.5625 0.868924C7.37153 1.0599 7.37153 1.36545 7.5625 1.51823L13.4826 7.43837H0.458333C0.190972 7.43837 0 7.66753 0 7.8967V8.96615C0 9.23351 0.190972 9.42448 0.458333 9.42448H13.4826L7.5625 15.3828C7.37153 15.5356 7.37153 15.8411 7.5625 16.0321L8.32639 16.7578C8.47917 16.9488 8.78472 16.9488 8.97569 16.7578L16.9583 8.77517C17.1493 8.5842 17.1493 8.31684 16.9583 8.12587L8.97569 0.143229C8.78472 -0.0477431 8.47917 -0.0477431 8.32639 0.143229Z" fill="#4E4B66"/>
</svg>
