<svg width="28" height="28" viewBox="0 0 28 28" fill="none" xmlns="http://www.w3.org/2000/svg">
<path d="M26.9833 1.34411L21.3003 0.0321136C21.0009 -0.0351301 20.6874 0.0039421 20.4137 0.142622C20.14 0.281303 19.9231 0.510941 19.8003 0.792114L17.1663 6.91711C17.0542 7.17861 17.0304 7.4695 17.0984 7.74574C17.1664 8.02199 17.3226 8.26856 17.5433 8.44811L20.8573 11.1601C18.8502 15.4177 15.4239 18.8441 11.1663 20.8511L8.45526 17.5371C8.2755 17.3167 8.02894 17.1607 7.75277 17.0927C7.47661 17.0247 7.18581 17.0484 6.92426 17.1601L0.800264 19.7851C0.515823 19.9083 0.28343 20.1271 0.143349 20.4036C0.00326768 20.6801 -0.0356762 20.9969 0.0332643 21.2991L1.34526 26.9871C1.41301 27.2755 1.57639 27.5326 1.8088 27.7163C2.04122 27.9001 2.32899 27.9997 2.62526 27.9991C5.95767 27.9995 9.25751 27.3434 12.3363 26.0684C15.4151 24.7933 18.2126 22.9242 20.569 20.5678C22.9253 18.2115 24.7944 15.414 26.0695 12.3352C27.3446 9.25636 28.0007 5.95652 28.0003 2.62411C28.0008 2.32711 27.9005 2.03872 27.7157 1.80618C27.531 1.57363 27.2727 1.41072 26.9833 1.34411Z" fill="#6E7191"/>
</svg>
