<svg width="48" height="38" viewBox="0 0 48 38" fill="none" xmlns="http://www.w3.org/2000/svg">
<path d="M43.6725 16.6844H35.5725V3.95637C35.5723 3.03545 35.2062 2.15234 34.5549 1.50124C33.9037 0.850142 33.0204 0.484375 32.0995 0.484375H15.8995C14.9788 0.48464 14.0958 0.850524 13.4447 1.50159C12.7937 2.15266 12.4278 3.03562 12.4275 3.95637V16.6844H4.32752C3.87127 16.6842 3.41946 16.774 2.99792 16.9485C2.57637 17.1231 2.19335 17.379 1.87073 17.7016C1.54812 18.0242 1.29223 18.4072 1.11769 18.8288C0.943152 19.2503 0.853384 19.7021 0.853516 20.1584V34.0454C0.853781 34.9661 1.21966 35.8491 1.87073 36.5002C2.5218 37.1512 3.40477 37.5171 4.32552 37.5174H43.6725C44.5933 37.5171 45.4762 37.1512 46.1273 36.5002C46.7784 35.8491 47.1443 34.9661 47.1445 34.0454V20.1584C47.1446 19.7023 47.0549 19.2507 46.8805 18.8292C46.7061 18.4078 46.4504 18.0249 46.128 17.7023C45.8056 17.3797 45.4228 17.1238 45.0015 16.9491C44.5802 16.7745 44.1286 16.6845 43.6725 16.6844ZM15.8985 3.95637H20.5275V10.5164L23.9995 8.97538L27.4715 10.5164V3.95637H32.1005V16.6844H15.9005L15.8985 3.95637ZM22.2635 34.0454H4.32552V20.1584H10.1115V26.7184L13.5835 25.1774L17.0535 26.7184V20.1584H22.2635V34.0454ZM43.6735 34.0454H25.7345V20.1584H30.9425V26.7184L34.4145 25.1774L37.8865 26.7184V20.1584H43.6725L43.6735 34.0454Z" fill="#F56E1E"/>
</svg>
