<svg width="73" height="55" viewBox="0 0 73 55" fill="none" xmlns="http://www.w3.org/2000/svg">
<path d="M22.8582 51V42.6H25.8582C26.8582 42.6 27.5862 42.812 28.0422 43.236C28.5062 43.652 28.7382 44.188 28.7382 44.844C28.7382 45.276 28.6182 45.648 28.3782 45.96C28.1382 46.264 27.8422 46.484 27.4902 46.62C27.9862 46.732 28.3782 46.96 28.6662 47.304C28.9542 47.64 29.0982 48.08 29.0982 48.624C29.0982 49.08 28.9982 49.488 28.7982 49.848C28.5982 50.2 28.2782 50.48 27.8382 50.688C27.3982 50.896 26.8182 51 26.0982 51H22.8582ZM23.9862 50.016H26.0982C26.8182 50.016 27.3102 49.888 27.5742 49.632C27.8382 49.368 27.9702 49.02 27.9702 48.588C27.9702 48.148 27.8382 47.8 27.5742 47.544C27.3102 47.28 26.8142 47.148 26.0862 47.148H23.9862V50.016ZM23.9862 46.212H25.8582C26.5302 46.212 26.9902 46.088 27.2382 45.84C27.4862 45.592 27.6102 45.276 27.6102 44.892C27.6102 44.5 27.4862 44.184 27.2382 43.944C26.9902 43.704 26.5302 43.584 25.8582 43.584H23.9862V46.212ZM29.8801 51L32.2681 47.772L30.0001 44.64H31.2241L32.9041 46.956L34.5841 44.64H35.7601L33.4921 47.712L35.8801 51H34.6321L32.8561 48.516L31.0801 51H29.8801ZM39.5434 51.12C39.0074 51.12 38.5034 51.004 38.0314 50.772C37.5674 50.532 37.1914 50.172 36.9034 49.692C36.6234 49.212 36.4834 48.608 36.4834 47.88V47.64C36.4834 46.952 36.6234 46.376 36.9034 45.912C37.1914 45.448 37.5674 45.1 38.0314 44.868C38.5034 44.636 39.0074 44.52 39.5434 44.52C40.0874 44.52 40.5914 44.636 41.0554 44.868C41.5194 45.1 41.8914 45.448 42.1714 45.912C42.4594 46.376 42.6034 46.952 42.6034 47.64V47.88C42.6034 48.608 42.4594 49.212 42.1714 49.692C41.8914 50.172 41.5194 50.532 41.0554 50.772C40.5914 51.004 40.0874 51.12 39.5434 51.12ZM39.5434 50.16C39.8714 50.16 40.1834 50.088 40.4794 49.944C40.7834 49.792 41.0314 49.548 41.2234 49.212C41.4234 48.876 41.5234 48.432 41.5234 47.88V47.64C41.5234 47.128 41.4234 46.716 41.2234 46.404C41.0314 46.084 40.7834 45.852 40.4794 45.708C40.1834 45.556 39.8714 45.48 39.5434 45.48C39.2234 45.48 38.9114 45.556 38.6074 45.708C38.3034 45.852 38.0514 46.084 37.8514 46.404C37.6594 46.716 37.5634 47.128 37.5634 47.64V47.88C37.5634 48.432 37.6594 48.876 37.8514 49.212C38.0514 49.548 38.3034 49.792 38.6074 49.944C38.9114 50.088 39.2234 50.16 39.5434 50.16ZM43.2615 52.5V50.064H44.0415C44.1615 49.904 44.2655 49.636 44.3535 49.26C44.4415 48.876 44.5095 48.428 44.5575 47.916C44.6135 47.404 44.6415 46.872 44.6415 46.32V44.64H49.0815V50.064H49.9815V52.5H48.9735V51H44.2695V52.5H43.2615ZM45.1215 50.064H48.0255V45.576H45.6735V46.56C45.6735 47.232 45.6255 47.884 45.5295 48.516C45.4415 49.14 45.3055 49.656 45.1215 50.064Z" fill="#6E7191"/>
<path d="M47.4635 27.429C44.5178 25.8347 41.0677 24.9166 37.4982 24.7773C33.9288 24.9166 30.4787 25.8347 27.5329 27.429C26.7819 27.8749 26.1659 28.4465 25.7293 29.1027C25.2927 29.7589 25.0464 30.4833 25.0082 31.2236L24.5938 34.6511H50.4013L49.9883 31.2236C49.95 30.4833 49.7037 29.759 49.2671 29.1028C48.8305 28.4466 48.2145 27.8749 47.4635 27.429V27.429Z" stroke="#6E7191" stroke-width="2" stroke-linecap="round" stroke-linejoin="round"/>
<path d="M37.497 21.1504C38.5907 21.1504 39.6599 20.8535 40.5694 20.2972C41.4788 19.7409 42.1876 18.9503 42.6062 18.0252C43.0248 17.1002 43.1343 16.0823 42.9209 15.1002C42.7075 14.1182 42.1808 13.2162 41.4074 12.5082C40.634 11.8002 39.6486 11.318 38.5759 11.1227C37.5031 10.9273 36.3912 11.0276 35.3807 11.4108C34.3702 11.7939 33.5065 12.4428 32.8988 13.2753C32.2911 14.1078 31.9668 15.0866 31.9668 16.0879C31.9668 17.4305 32.5494 18.7182 33.5865 19.6676C34.6237 20.617 36.0303 21.1504 37.497 21.1504V21.1504Z" stroke="#6E7191" stroke-width="2" stroke-linecap="round" stroke-linejoin="round"/>
</svg>
