<svg width="20" height="20" viewBox="0 0 20 20" fill="none" xmlns="http://www.w3.org/2000/svg">
<path fill-rule="evenodd" clip-rule="evenodd" d="M10.8796 0.430662C9.15587 0.0877843 7.36915 0.263762 5.7454 0.936341C4.12165 1.60892 2.7338 2.74789 1.75737 4.20923C0.780935 5.67057 0.259766 7.38863 0.259766 9.14616C0.259766 11.5029 1.19599 13.7632 2.86249 15.4297C4.52898 17.0962 6.78924 18.0324 9.14602 18.0324C10.9035 18.0324 12.6216 17.5112 14.083 16.5348C14.2894 16.3969 14.4894 16.2507 14.6825 16.0969L18.0798 19.4942C18.4704 19.8847 19.1035 19.8847 19.4941 19.4942C19.8846 19.1037 19.8846 18.4705 19.4941 18.08L16.0967 14.6827C16.6114 14.0365 17.0363 13.3183 17.3558 12.5468C18.0284 10.923 18.2044 9.13631 17.8615 7.41254C17.5186 5.68878 16.6723 4.1054 15.4295 2.86264C14.1868 1.61987 12.6034 0.77354 10.8796 0.430662ZM6.51076 2.7841C7.76906 2.2629 9.15365 2.12653 10.4895 2.39223C11.8253 2.65794 13.0523 3.31379 14.0153 4.27685C14.9784 5.23991 15.6342 6.46692 15.8999 7.80272C16.1657 9.13853 16.0293 10.5231 15.5081 11.7814C14.9869 13.0397 14.1042 14.1152 12.9718 14.8719C11.8394 15.6285 10.508 16.0324 9.14602 16.0324C7.31967 16.0324 5.56812 15.3069 4.2767 14.0155C2.98528 12.7241 2.25977 10.9725 2.25977 9.14617C2.25977 7.78419 2.66364 6.45281 3.42031 5.32037C4.17698 4.18793 5.25246 3.3053 6.51076 2.7841Z" fill="#A0A3BC"/>
</svg>
