<svg width="40" height="38" viewBox="0 0 40 38" fill="none" xmlns="http://www.w3.org/2000/svg">
<path d="M37.139 13.2073L26.71 11.6873L22.049 2.23633C21.8602 1.85379 21.5682 1.5317 21.2059 1.30649C20.8436 1.08127 20.4255 0.961914 19.999 0.961914C19.5724 0.961914 19.1543 1.08127 18.792 1.30649C18.4298 1.5317 18.1377 1.85379 17.949 2.23633L13.288 11.6873L2.86196 13.2073C2.43979 13.2688 2.04326 13.4473 1.71727 13.7225C1.39128 13.9977 1.14884 14.3586 1.0174 14.7645C0.885962 15.1704 0.870773 15.6049 0.973553 16.019C1.07633 16.433 1.29298 16.81 1.59896 17.1073L9.14396 24.4593L7.35896 34.8433C7.28717 35.2631 7.33421 35.6945 7.49475 36.0889C7.6553 36.4834 7.92296 36.825 8.26748 37.0753C8.61201 37.3256 9.01966 37.4745 9.44439 37.5052C9.86911 37.536 10.294 37.4474 10.671 37.2493L20.001 32.3493L29.331 37.2493C29.708 37.4465 30.1327 37.5346 30.557 37.5034C30.9814 37.4723 31.3887 37.3233 31.733 37.0732C32.0772 36.8232 32.3448 36.4819 32.5056 36.0879C32.6664 35.6939 32.714 35.2629 32.643 34.8433L30.858 24.4573L38.403 17.1053C38.7084 16.8079 38.9245 16.431 39.0269 16.0171C39.1293 15.6033 39.1138 15.1691 38.9823 14.7635C38.8508 14.358 38.6085 13.9973 38.2827 13.7223C37.957 13.4473 37.5608 13.2689 37.139 13.2073ZM27.185 23.2583L28.877 33.1373L20.004 28.4763L11.131 33.1373L12.823 23.2583L5.64196 16.2583L15.564 14.8163L20.004 5.82233L24.444 14.8163L34.363 16.2653L27.185 23.2583Z" fill="#F56E1E"/>
</svg>
