<svg width="32" height="32" viewBox="0 0 32 32" fill="none" xmlns="http://www.w3.org/2000/svg">
<path d="M31.2291 15.8847C31.2234 12.893 30.3401 9.96874 28.6886 7.47415C27.0371 4.97955 24.69 3.0243 21.9382 1.85064C19.1863 0.67697 16.1505 0.336467 13.207 0.871313C10.2635 1.40616 7.54158 2.79285 5.37848 4.85958L2.33469 1.81579C2.19684 1.67753 2.02106 1.58331 1.82962 1.54506C1.63817 1.50681 1.43968 1.52625 1.25929 1.60092C1.07891 1.67559 0.924749 1.80213 0.816349 1.9645C0.70795 2.12687 0.650191 2.31776 0.650391 2.51299V11.4751C0.650391 11.7366 0.754276 11.9874 0.939194 12.1723C1.12411 12.3573 1.37491 12.4611 1.63642 12.4611H10.5996C10.7948 12.4613 10.9857 12.4036 11.1481 12.2952C11.3105 12.1868 11.437 12.0326 11.5117 11.8522C11.5863 11.6718 11.6058 11.4734 11.5675 11.2819C11.5293 11.0905 11.4351 10.9147 11.2968 10.7768L8.16837 7.64841C9.75171 6.16074 11.729 5.15911 13.8651 4.76261C16.0012 4.36611 18.2062 4.59144 20.218 5.41179C22.2297 6.23215 23.9636 7.61301 25.2133 9.39018C26.463 11.1673 27.176 13.266 27.2676 15.4367C27.3591 17.6074 26.8254 19.7586 25.7297 21.6347C24.6341 23.5108 23.0227 25.0328 21.0872 26.0196C19.1516 27.0065 16.9734 27.4167 14.8115 27.2014C12.6496 26.9862 10.595 26.1546 8.89202 24.8056C8.60628 24.5816 8.2482 24.4703 7.88581 24.4929C7.52341 24.5155 7.18195 24.6705 6.9263 24.9283L6.23121 25.6234C6.08484 25.77 5.97085 25.9457 5.8966 26.1391C5.82236 26.3325 5.78951 26.5393 5.80018 26.7462C5.81085 26.9531 5.86479 27.1554 5.95854 27.3402C6.05229 27.5249 6.18374 27.6879 6.34441 27.8187C8.59246 29.6306 11.3076 30.7689 14.1756 31.1019C17.0437 31.435 19.9474 30.9491 22.5508 29.7006C25.1542 28.4521 27.3509 26.4919 28.8867 24.0469C30.4225 21.6019 31.2346 18.7721 31.2291 15.8847ZM20.078 20.7419L20.6832 19.9632C20.9235 19.6534 21.0312 19.2609 20.9826 18.8718C20.934 18.4827 20.7331 18.1287 20.424 17.8875L17.9144 15.9355V9.50198C17.9144 9.30747 17.8761 9.11487 17.8017 8.93516C17.7273 8.75546 17.6182 8.59218 17.4806 8.45464C17.3431 8.3171 17.1798 8.208 17.0001 8.13356C16.8204 8.05913 16.6278 8.02081 16.4333 8.02081H15.4472C15.2527 8.02081 15.0601 8.05913 14.8804 8.13356C14.7007 8.208 14.5374 8.3171 14.3999 8.45464C14.2624 8.59218 14.1533 8.75546 14.0788 8.93516C14.0044 9.11487 13.9661 9.30747 13.9661 9.50198V17.86L17.9991 21.0043C18.1528 21.1236 18.3285 21.2115 18.5162 21.2629C18.7039 21.3143 18.8998 21.3282 19.0929 21.3039C19.286 21.2795 19.4723 21.2173 19.6414 21.1209C19.8104 21.0245 19.9588 20.8957 20.078 20.7419Z" fill="#6E7191"/>
</svg>
