<svg width="29" height="26" viewBox="0 0 29 26" fill="none" xmlns="http://www.w3.org/2000/svg">
<path fill-rule="evenodd" clip-rule="evenodd" d="M15.7547 0.138481C14.5046 -0.0891472 13.208 0.0270604 12.0258 0.475352C10.8432 0.923779 9.81848 1.68838 9.09075 2.68539C8.36208 3.68371 7.96647 4.86775 7.96647 6.08753C7.96647 7.72535 8.67799 9.27614 9.911 10.4049C11.141 11.5309 12.7919 12.15 14.4967 12.15C15.7695 12.15 17.0201 11.8049 18.0909 11.1499C19.1623 10.4946 20.0115 9.55421 20.5169 8.43711C21.0231 7.31855 21.1573 6.0818 20.8978 4.88755C20.6385 3.69429 20.0012 2.61141 19.0823 1.77019C18.1643 0.92982 17.0049 0.366135 15.7547 0.138481ZM12.7349 2.34543C13.5737 2.02738 14.501 1.94308 15.3964 2.10613C16.2917 2.26915 17.103 2.66978 17.7318 3.24541C18.3597 3.8202 18.7759 4.54142 18.9434 5.31222C19.1106 6.08203 19.0258 6.88107 18.6948 7.61262C18.3631 8.34562 17.7947 8.98658 17.0473 9.44377C16.2991 9.90137 15.4113 10.15 14.4967 10.15C13.2681 10.15 12.1056 9.70243 11.2615 8.92965C10.4202 8.15957 9.96647 7.13502 9.96647 6.08753C9.96647 5.30477 10.2195 4.53125 10.7062 3.86452C11.1938 3.19648 11.8965 2.66334 12.7349 2.34543ZM14.5369 13.7777C14.5109 13.7767 14.4849 13.7767 14.4589 13.7777C10.747 13.9226 7.14585 14.8772 4.05663 16.5492C4.045 16.5555 4.0335 16.562 4.02213 16.5688C3.15628 17.0828 2.42471 17.7544 1.89642 18.5484C1.37375 19.334 1.06532 20.2173 1.01119 21.1354L0.600661 24.5307C0.566315 24.8148 0.655295 25.0999 0.845087 25.314C1.03488 25.5282 1.3073 25.6507 1.59343 25.6507H27.4009C27.687 25.6507 27.9594 25.5282 28.1491 25.3142C28.3389 25.1002 28.428 24.8151 28.3938 24.5311L27.9847 21.1356C27.9304 20.2174 27.622 19.334 27.0993 18.5485C26.571 17.7545 25.8395 17.0829 24.9738 16.5688L24.4632 17.4286L24.9392 16.5492C21.85 14.8772 18.2489 13.9226 14.5369 13.7777ZM14.4979 15.7778C17.9035 15.9164 21.1814 16.7934 23.9692 18.2984C24.5975 18.6744 25.0922 19.1425 25.4342 19.6564C25.7779 20.1729 25.9609 20.7254 25.9893 21.2749C25.9905 21.2976 25.9924 21.3203 25.9952 21.3428L26.2732 23.6507H2.72163L3.00063 21.3433C3.00338 21.3205 3.00535 21.2977 3.00653 21.2748C3.03489 20.7253 3.21785 20.1728 3.56152 19.6563C3.90345 19.1424 4.39826 18.6744 5.02656 18.2984C7.8144 16.7934 11.0923 15.9164 14.4979 15.7778Z" fill="#6E7191"/>
</svg>
