<svg width="27" height="26" viewBox="0 0 27 26" fill="none" xmlns="http://www.w3.org/2000/svg">
<path d="M22.149 17.3521C19.5922 15.8404 16.5976 14.97 13.4995 14.8379C10.4013 14.97 7.40677 15.8404 4.84994 17.3521C4.19809 17.7748 3.66339 18.3168 3.28443 18.939C2.90547 19.5612 2.6917 20.248 2.65853 20.9499L2.29883 24.1997H24.6988L24.3404 20.9499C24.3071 20.248 24.0933 19.5612 23.7144 18.939C23.3354 18.3169 22.8008 17.7749 22.149 17.3521V17.3521Z" fill="#F56E1E"/>
<path d="M13.4992 11.3988C14.4486 11.3988 15.3766 11.1173 16.166 10.5899C16.9553 10.0625 17.5705 9.31279 17.9338 8.43571C18.2971 7.55862 18.3922 6.5935 18.207 5.6624C18.0218 4.73129 17.5646 3.87601 16.8933 3.20472C16.222 2.53343 15.3668 2.07627 14.4357 1.89106C13.5045 1.70585 12.5394 1.80091 11.6623 2.16421C10.7853 2.52751 10.0356 3.14274 9.50816 3.93209C8.98073 4.72145 8.69922 5.64948 8.69922 6.59883C8.69922 7.87187 9.20493 9.09277 10.1051 9.99294C11.0053 10.8931 12.2262 11.3988 13.4992 11.3988V11.3988Z" fill="#F56E1E"/>
</svg>
