<svg width="263" height="49" viewBox="0 0 263 49" fill="none" xmlns="http://www.w3.org/2000/svg">
<g clip-path="url(#clip0_2033_2323)">
<path d="M87.8567 32.8979H89.9326V37.8025H87.3417V35.3892H83.045C82.8841 35.4099 82.7285 35.4203 82.5783 35.4203C82.4174 35.4203 82.2618 35.4099 82.1117 35.3892H77.0425V37.8025H74.4355V32.8979H76.3666V19.2587C76.3666 18.2518 76.5972 17.328 77.0586 16.4873C77.5306 15.6361 78.1636 14.9302 78.9575 14.3698C80.0196 13.6224 81.2265 13.2487 82.5783 13.2487H87.8567V32.8979ZM85.2658 32.8979V15.771H82.5783C81.5484 15.7918 80.6847 16.1395 79.9874 16.8142C79.3008 17.4785 78.9575 18.2934 78.9575 19.2587V32.8979H85.2658ZM103.885 13.2487V35.576H101.262V19.1653L95.0178 33.2405C94.6852 33.9567 94.1917 34.5276 93.5373 34.9532C92.8828 35.3683 92.1587 35.576 91.3648 35.576V13.2487H93.9718V29.6905L100.232 15.5842C100.554 14.8679 101.042 14.3023 101.696 13.8871C102.361 13.4615 103.091 13.2487 103.885 13.2487ZM116.196 24.2722C116.667 24.6251 117.08 25.0403 117.435 25.5178C118.218 26.5455 118.609 27.7184 118.609 29.0366V29.457C118.609 30.4639 118.373 31.3928 117.901 32.244C117.429 33.0952 116.797 33.7958 116.002 34.3459C114.929 35.1037 113.723 35.4826 112.381 35.4826C111.03 35.4826 109.818 35.1037 108.745 34.3459C107.951 33.7958 107.318 33.0952 106.846 32.244C106.374 31.3928 106.138 30.4639 106.138 29.457V29.1923H108.745V29.457C108.745 30.4223 109.099 31.2475 109.807 31.9326C110.515 32.6176 111.373 32.9602 112.381 32.9602C113.379 32.9602 114.233 32.6176 114.94 31.9326C115.649 31.2475 116.002 30.4223 116.002 29.457V29.0366C116.002 28.1024 115.675 27.3031 115.02 26.6388C114.367 25.9745 113.556 25.6061 112.591 25.5334C112.516 25.5229 112.446 25.5178 112.381 25.5178H109.195V23.0111H112.591C113.556 22.928 114.367 22.5596 115.02 21.9055C115.675 21.2412 116.002 20.442 116.002 19.5078V19.2742C116.002 18.3089 115.649 17.4837 114.94 16.7986C114.233 16.1136 113.379 15.771 112.381 15.771C111.373 15.771 110.515 16.1136 109.807 16.7986C109.099 17.4837 108.745 18.3089 108.745 19.2742V19.4144H106.138V19.2742C106.138 18.2674 106.374 17.3383 106.846 16.4873C107.318 15.6361 107.951 14.9354 108.745 14.3853C109.818 13.6275 111.03 13.2487 112.381 13.2487C113.723 13.2487 114.929 13.6275 116.002 14.3853C116.797 14.9354 117.429 15.6361 117.901 16.4873C118.373 17.3383 118.609 18.2674 118.609 19.2742V19.5078C118.609 20.8156 118.218 21.9835 117.435 23.0111C117.08 23.4885 116.667 23.9089 116.196 24.2722ZM131.484 15.771H123.051V23.1512H131.484V25.6734H123.051V33.0536H131.484V35.5604H120.427V13.2487H131.484V15.771ZM148.88 35.5449H146.224L141.332 18.0598L136.439 35.5449H133.784L139.336 15.6932C139.561 14.9562 139.975 14.3645 140.575 13.9182C141.176 13.4719 141.863 13.2487 142.635 13.2487L148.88 35.5449ZM161.399 22.4661C162.182 23.4937 162.574 24.6615 162.574 25.9694V29.5037C162.574 30.822 162.182 31.9949 161.399 33.0225C161.002 33.5727 160.519 34.0397 159.951 34.4238C158.889 35.1816 157.677 35.5604 156.314 35.5604H150.07V13.2487H152.677V19.9282H156.314C157.677 19.9282 158.889 20.307 159.951 21.0648C160.519 21.4488 161.002 21.916 161.399 22.4661ZM159.951 29.5037V25.9694C159.951 25.004 159.597 24.1788 158.889 23.4937C158.181 22.8086 157.322 22.4661 156.314 22.4661H152.677V33.0225H156.314C157.322 33.0225 158.181 32.6799 158.889 31.9949C159.597 31.3098 159.951 30.4794 159.951 29.5037ZM185.345 13.2487H188.917V35.5915H186.294V19.3521L185.989 20.442V20.4732L182.207 33.9412L182.191 34.019H182.142C181.37 33.9878 180.689 33.7543 180.099 33.3183C179.509 32.872 179.106 32.2855 178.892 31.559L175.786 20.4887L175.464 19.3365V35.5915H172.841V13.2487H176.413L177.347 16.5807L180.887 29.1923L184.17 17.437V17.4215L184.492 16.2848L184.589 15.9423L185.345 13.2487ZM197.736 13.1709C198.884 13.1709 199.929 13.4459 200.874 13.996C201.829 14.5358 202.59 15.2676 203.159 16.1914C203.727 17.1048 204.012 18.1221 204.012 19.2431V29.4726C204.012 30.5832 203.727 31.6004 203.159 32.5243C202.59 33.4377 201.829 34.1695 200.874 34.7196C199.929 35.2698 198.884 35.5449 197.736 35.5449C196.578 35.5449 195.521 35.2698 194.566 34.7196C193.621 34.1695 192.866 33.4377 192.297 32.5243C191.738 31.6004 191.459 30.5832 191.459 29.4726V19.2431C191.459 18.1221 191.738 17.1048 192.297 16.1914C192.866 15.2676 193.621 14.5358 194.566 13.996C195.521 13.4459 196.578 13.1709 197.736 13.1709ZM201.39 29.4726V19.2431C201.39 18.2674 201.029 17.437 200.311 16.7519C199.592 16.0565 198.734 15.7087 197.736 15.7087C196.727 15.7087 195.864 16.0565 195.145 16.7519C194.437 17.437 194.083 18.2674 194.083 19.2431V29.4726C194.083 30.4482 194.437 31.2839 195.145 31.9794C195.864 32.6644 196.727 33.007 197.736 33.007C198.734 33.007 199.592 32.6644 200.311 31.9794C201.029 31.2839 201.39 30.4482 201.39 29.4726ZM218.866 13.2487V15.7866H213.925V35.4981H211.302V15.7866H206.362V13.2487H218.866ZM227.12 13.1709C228.268 13.1709 229.315 13.4459 230.259 13.996C231.214 14.5358 231.975 15.2676 232.544 16.1914C233.113 17.1048 233.397 18.1221 233.397 19.2431V29.4726C233.397 30.5832 233.113 31.6004 232.544 32.5243C231.975 33.4377 231.214 34.1695 230.259 34.7196C229.315 35.2698 228.268 35.5449 227.12 35.5449C225.963 35.5449 224.906 35.2698 223.951 34.7196C223.006 34.1695 222.25 33.4377 221.681 32.5243C221.123 31.6004 220.845 30.5832 220.845 29.4726V19.2431C220.845 18.1221 221.123 17.1048 221.681 16.1914C222.25 15.2676 223.006 14.5358 223.951 13.996C224.906 13.4459 225.963 13.1709 227.12 13.1709ZM230.774 29.4726V19.2431C230.774 18.2674 230.414 17.437 229.696 16.7519C228.977 16.0565 228.119 15.7087 227.12 15.7087C226.112 15.7087 225.248 16.0565 224.53 16.7519C223.822 17.437 223.468 18.2674 223.468 19.2431V29.4726C223.468 30.4482 223.822 31.2839 224.53 31.9794C225.248 32.6644 226.112 33.007 227.12 33.007C228.119 33.007 228.977 32.6644 229.696 31.9794C230.414 31.2839 230.774 30.4482 230.774 29.4726ZM246.947 15.771C247.719 16.809 248.105 17.9819 248.105 19.2898V22.8242C248.105 24.1321 247.719 25.2998 246.947 26.3275C246.539 26.8776 246.057 27.3447 245.499 27.7287C244.425 28.4864 243.214 28.8654 241.861 28.8654H238.225V35.5292H235.618V13.2487H241.861C243.214 13.2487 244.425 13.6275 245.499 14.3853C246.057 14.7694 246.539 15.2312 246.947 15.771ZM245.499 22.8242V19.2898C245.499 18.3245 245.145 17.4993 244.436 16.8142C243.729 16.1188 242.87 15.771 241.861 15.771H238.225V26.3275H241.861C242.87 26.3275 243.729 25.9849 244.436 25.2998C245.145 24.6148 245.499 23.7895 245.499 22.8242ZM260.271 19.3365V19.2898C260.271 18.3245 259.917 17.4993 259.209 16.8142C258.501 16.1188 257.643 15.771 256.635 15.771C255.636 15.771 254.778 16.1188 254.06 16.8142C253.351 17.4993 252.997 18.3245 252.997 19.2898V29.5037C252.997 30.4691 253.351 31.2942 254.06 31.9794C254.778 32.6644 255.636 33.007 256.635 33.007C257.643 33.007 258.501 32.6644 259.209 31.9794C259.917 31.2942 260.271 30.4691 260.271 29.5037V29.3635H262.895V29.5037C262.895 30.6144 262.61 31.6264 262.042 32.5398C261.484 33.4533 260.727 34.1851 259.772 34.7352C258.829 35.2749 257.783 35.5449 256.635 35.5449C255.487 35.5449 254.441 35.2749 253.496 34.7352C252.553 34.1851 251.796 33.4533 251.228 32.5398C250.67 31.6264 250.391 30.6144 250.391 29.5037V19.2898C250.391 18.1792 250.67 17.1671 251.228 16.2536C251.796 15.3403 252.553 14.6137 253.496 14.0739C254.441 13.5238 255.487 13.2487 256.635 13.2487C257.783 13.2487 258.829 13.5238 259.772 14.0739C260.727 14.6137 261.484 15.3403 262.042 16.2536C262.61 17.1671 262.895 18.1792 262.895 19.2898V19.3365H260.271Z" fill="white"/>
<path fill-rule="evenodd" clip-rule="evenodd" d="M51.2115 14.5147C51.1285 14.4181 51.0493 14.3196 50.9736 14.2194C50.9505 14.189 50.9541 14.1859 50.9843 14.21C51.2693 14.4399 51.5605 14.694 51.8577 14.9725C52.7303 15.7903 53.6061 16.6005 54.4846 17.4024C55.1638 18.0224 55.8851 18.5947 56.648 19.1192C57.6338 19.7963 58.6931 20.2946 59.8263 20.6134C59.8287 20.6141 59.8303 20.6134 59.8315 20.611L59.8366 20.598C59.8386 20.5933 59.8386 20.5879 59.8371 20.5833C59.8351 20.5786 59.8315 20.5748 59.8268 20.5725C58.8123 20.0978 57.8521 19.5663 56.9851 18.9308C56.7193 18.7362 56.4488 18.4892 56.1731 18.1901C56.1695 18.1859 56.1683 18.1808 56.1699 18.1755C56.1715 18.1705 56.1751 18.1662 56.1802 18.1635C56.1895 18.1577 56.199 18.1573 56.2086 18.1612C56.6416 18.3458 57.0433 18.5793 57.4134 18.8614C57.756 19.1231 58.1207 19.3917 58.5071 19.6669C59.0103 20.026 59.6028 20.3119 60.2292 20.3355C60.8945 20.3605 61.483 20.0411 61.9603 19.6083C62.55 19.0723 63.1022 18.4845 63.8425 18.1392C63.8477 18.1369 63.8516 18.1335 63.8548 18.1288C63.8577 18.1246 63.8592 18.1196 63.8596 18.1142C63.8596 18.1087 63.8584 18.1037 63.8556 18.0992C63.8533 18.0945 63.8492 18.0907 63.8445 18.0883C62.6723 17.4525 61.5241 16.7496 60.4 15.9792C58.1939 14.4671 56.2719 12.7012 54.634 10.6816C54.5264 10.5487 54.5415 10.5347 54.679 10.6393C54.9547 10.8494 55.2065 11.068 55.434 11.2953C55.8567 11.7176 56.2763 12.1338 56.6931 12.544C57.1142 12.9594 57.5712 13.3055 58.0641 13.5821C58.0685 13.5845 58.0732 13.5859 58.0784 13.5859C58.0832 13.5859 58.0884 13.5846 58.0928 13.5822C58.0972 13.5798 58.1007 13.5763 58.1031 13.5721C58.1055 13.568 58.107 13.5632 58.1067 13.5584C58.1011 13.1737 57.5912 12.8498 57.3106 12.6302C57.2202 12.5601 57.013 12.3514 57.0791 12.2438C57.0823 12.2386 57.0867 12.2343 57.0919 12.2311C57.097 12.2278 57.1031 12.2258 57.1094 12.225C57.1158 12.2244 57.1222 12.225 57.1278 12.227C57.1337 12.2291 57.1393 12.2324 57.1437 12.2367C58.3206 13.3875 59.7083 14.2838 61.3069 14.9252C61.6344 15.0566 61.9794 15.1829 62.3416 15.304C62.3527 15.3079 62.3623 15.3146 62.3695 15.3234C62.3767 15.3322 62.3811 15.343 62.3823 15.3537C62.383 15.365 62.3806 15.3761 62.375 15.3861C62.3695 15.3958 62.3611 15.4039 62.3507 15.4096L62.1742 15.5017C62.0022 15.5919 62.0145 15.6362 62.2117 15.6347C62.4707 15.6316 62.7257 15.6312 62.9775 15.6335C63.0412 15.6339 63.0867 15.6058 63.1137 15.5499C63.2341 15.3015 63.268 15.0502 63.2153 14.7963C63.1544 14.4988 63.0612 14.1857 62.9356 13.8571C62.8699 13.6844 62.8404 13.4776 62.8476 13.2368C62.8476 13.233 62.8488 13.2291 62.8512 13.226C62.8531 13.2227 62.8564 13.2199 62.8604 13.2181L62.889 13.2044C62.9022 13.1982 62.9101 13.2018 62.913 13.2154C62.948 13.394 63.0049 13.5706 63.085 13.7451C63.3409 14.305 63.6469 14.8534 63.7955 15.4528C63.8971 15.8617 63.8744 16.2663 63.7277 16.6674C63.7162 16.6991 63.6927 16.7129 63.6576 16.7091C62.9449 16.632 62.352 16.4089 61.7698 16.032C61.1965 15.6601 60.6311 15.2431 59.9992 15.017C59.9857 15.0119 59.9721 15.0114 59.9581 15.0159C59.955 15.017 59.9522 15.0187 59.9498 15.021C59.9478 15.0232 59.9458 15.026 59.9451 15.029C59.9442 15.0319 59.9442 15.0351 59.9451 15.0381C59.9458 15.0411 59.9471 15.0437 59.9495 15.0461C61.1558 16.341 62.6775 17.2097 64.5139 17.6525C64.5178 17.6533 64.5218 17.6533 64.5258 17.6525C64.5298 17.6517 64.5334 17.6502 64.5366 17.6475C64.5398 17.6452 64.5425 17.6421 64.5442 17.6386C64.5457 17.6351 64.5465 17.6313 64.5465 17.6275C64.415 14.333 62.7539 11.4462 60.5594 8.84213C59.2721 7.31466 57.9509 5.92002 56.5958 4.65826C54.5615 2.76391 52.2825 1.12375 49.7042 0.0044681C49.6938 0.000151897 49.6827 -0.00108143 49.6715 0.000961054C49.6604 0.00304208 49.6504 0.00828285 49.6425 0.0160288C49.3994 0.26028 49.5495 0.525418 49.6349 0.786164C49.683 0.934919 49.6851 1.08533 49.6767 1.23682C49.6756 1.25621 49.6847 1.2692 49.7042 1.27579C50.2034 1.45197 50.7389 1.5788 51.2676 1.71218C51.2776 1.71461 51.2864 1.7192 51.2935 1.72555C51.3011 1.73191 51.3067 1.73985 51.3099 1.74872C51.3131 1.75758 51.3142 1.76706 51.3131 1.77638C51.3115 1.78567 51.3078 1.79454 51.3019 1.8022C51.2426 1.88163 51.1927 1.96302 51.1529 2.0465C51.1118 2.13359 51.1381 2.19486 51.2326 2.23036C54.0933 3.47311 56.7935 5.15393 58.855 8.14059C59.1167 8.49243 55.9245 6.52001 54.9352 6.15132C53.7682 5.716 53.3291 5.38339 52.0318 5.25714C51.6545 5.22037 51.8968 6.07906 51.9159 6.13541C52.1386 6.79046 52.396 7.21512 52.5865 7.77941C52.6283 7.90239 52.6071 7.91299 52.5231 7.81125C52.2167 7.43983 51.9386 7.03198 51.6888 6.58771C51.476 6.20909 51.1162 5.08499 50.6095 4.98267C50.442 4.94892 50.2277 4.97642 50.0919 5.04853C49.6117 5.30361 49.1583 5.53961 48.732 5.75666C47.6973 6.28304 46.763 7.06967 47.3491 8.27782C47.4486 8.48349 47.5639 8.67126 47.6937 8.84105C47.934 9.15428 48.185 9.47704 48.4476 9.80934C48.7089 10.1398 48.944 10.5438 49.0021 10.9615C49.0101 11.0233 48.9966 11.028 48.9615 10.9753C48.6296 10.4816 47.8917 9.37954 47.7192 9.31914C47.4821 9.2361 47.7527 9.98061 47.7527 9.98061C47.7527 9.98061 47.8511 10.2249 47.6479 10.0327C46.604 8.88109 46.0267 7.46873 45.5737 5.99486C45.5274 5.84337 45.3729 5.73851 45.2091 5.82579C44.2632 6.33241 45.8837 4.69873 44.5923 4.37774C44.5828 4.37539 44.5724 4.37671 44.5636 4.38141C44.5553 4.38615 44.5489 4.3939 44.5461 4.40298C44.3672 4.73564 44.28 5.03755 44.1274 5.56232C43.7285 6.9588 43.9038 7.49516 45.3334 7.50441C45.3457 7.50457 45.3577 7.50788 45.368 7.51397C45.3785 7.52007 45.3868 7.52873 45.392 7.53898C45.5175 7.77834 45.6386 7.97885 45.7549 8.14059C46.1064 8.62913 46.4243 9.08568 46.708 9.51018C46.9829 9.92114 47.1742 10.3205 47.2817 10.7085C47.4591 11.3484 47.3861 11.969 47.0633 12.5698C47.0331 12.6258 47.0259 12.678 47.0538 12.7367C47.3861 13.4432 47.8889 13.9773 48.4755 14.5042C48.4882 14.5158 48.5034 14.5246 48.5201 14.5301C48.5368 14.5357 48.5543 14.5376 48.5718 14.5361C48.948 14.5046 49.3352 14.5292 49.7332 14.6097C50.7146 14.8083 51.4082 15.4762 51.9397 16.2659C52.2 16.6529 52.4829 17.0594 52.7873 17.4857C52.794 17.4945 52.7984 17.5045 52.8 17.5153C52.802 17.5257 52.8012 17.5365 52.798 17.5469C52.6255 18.0914 51.9844 18.1601 51.8147 18.7139C51.8131 18.72 51.8123 18.7262 51.8131 18.7323C51.8138 18.7381 51.8159 18.7443 51.8194 18.7497C51.8226 18.7551 51.827 18.7597 51.8322 18.7635C51.8373 18.7674 51.8434 18.7701 51.8498 18.7717C52.0007 18.8078 52.1613 18.6876 52.2781 18.6063C52.3283 18.5716 52.3749 18.575 52.4183 18.6174C52.4773 18.675 52.4812 18.7331 52.4298 18.7924C52.09 19.184 51.6668 19.288 51.1581 19.3162C50.6844 19.3416 50.3577 19.5585 50.1784 19.9667C50.1684 19.9898 50.1763 20.0044 50.2019 20.011C50.3827 20.0588 50.6429 19.8754 50.7859 19.7628C50.8091 19.7447 50.8385 19.7347 50.8688 19.7354C50.9477 19.7374 50.9791 19.7662 50.9624 19.8221C50.9609 19.8268 50.9585 19.8311 50.9548 19.8345C50.9512 19.838 50.9469 19.8406 50.9421 19.8426C50.4273 20.0295 50.0197 20.3463 49.7193 20.7926C49.2404 21.504 49.0508 22.2901 49.1508 23.1503C49.1583 23.2162 49.1436 23.2208 49.1062 23.1646C48.4244 22.1375 49.1141 21.0365 49.8062 20.1976C49.8444 20.1513 49.8333 20.1332 49.7719 20.144C49.1775 20.245 48.8093 20.665 48.3484 20.9883C48.2188 21.0785 48.0785 21.1162 47.9268 21.1012C47.9196 21.1005 47.9132 21.0982 47.9073 21.0943C47.9017 21.0904 47.8973 21.0854 47.8941 21.0792C47.8914 21.0735 47.8901 21.0666 47.8906 21.06C47.8909 21.0534 47.8933 21.0469 47.897 21.0415C48.2663 20.5143 48.8639 20.1208 49.4958 19.7771C50.0866 19.4553 50.5835 19.1702 50.9855 18.922C51.5063 18.6009 51.7616 18.152 51.8131 17.5153C51.7418 16.7295 51.5429 16.318 50.9624 15.9885C50.2636 15.6447 49.6819 15.3669 48.936 15.0927C48.5495 14.9507 48.1985 14.7666 47.883 14.5405C47.8639 14.5265 47.8455 14.5277 47.8284 14.5438C47.4005 14.9439 47.0447 15.2886 46.453 15.4362C46.2725 15.4813 46.2522 15.6813 46.4164 15.7503C46.4912 15.7823 46.5669 15.8104 46.6435 15.8347C46.6972 15.852 46.6981 15.8709 46.6459 15.8922C46.4542 15.9676 46.253 15.9842 46.0427 15.9415C45.8808 15.9079 45.7191 15.8917 45.5565 15.8922C45.5434 15.8917 45.5311 15.8952 45.5198 15.9014C45.5088 15.9076 45.5 15.9168 45.494 15.9276C45.488 15.9384 45.4852 15.9503 45.486 15.9622C45.4868 15.9745 45.4912 15.9861 45.4983 15.9961L45.6638 16.2251C45.6669 16.2293 45.6689 16.2343 45.6701 16.2393C45.6709 16.2443 45.6705 16.2497 45.6693 16.2547C45.6677 16.2594 45.6653 16.264 45.6617 16.2682C45.6582 16.272 45.6538 16.2751 45.6486 16.2771C45.2673 16.4413 44.8632 16.4228 44.45 16.3469C44.1521 16.2921 43.8556 16.2424 43.56 16.1981C43.4632 16.1835 43.3707 16.1904 43.2819 16.2185C43.2727 16.2217 43.2639 16.2262 43.2568 16.2324C43.2496 16.2386 43.2437 16.2459 43.2393 16.2544C43.2352 16.2625 43.2329 16.2717 43.2325 16.281C43.2321 16.2902 43.2337 16.2995 43.2373 16.308C43.5651 17.1337 44.2158 17.8533 44.8533 18.4467C45.4505 19.0029 46.0275 19.5431 46.5837 20.0677C47.8471 21.2589 48.9252 24.1399 48.9252 24.1399C48.9252 24.1399 49.2448 25.0459 48.4611 24.4694C48.3595 24.079 48.3484 23.1646 46.5837 21.7522C44.8191 20.3397 47.3288 26.3362 48.6934 26.9397C50.0576 27.5428 53.934 24.7781 54.632 24.3638C56.215 23.4247 57.7545 22.3494 59.0741 21.119C59.0784 21.1147 59.082 21.1101 59.084 21.1047C59.0864 21.0993 59.0872 21.0935 59.0869 21.0877C59.086 21.082 59.0845 21.0766 59.0816 21.0712C59.0784 21.0662 59.0745 21.0619 59.0697 21.0584C58.0122 20.3259 56.9568 19.5678 55.9034 18.7847C54.1949 17.5149 52.5649 16.0979 51.2115 14.5147Z" fill="white"/>
<path d="M48.867 0.657329C49.648 1.7755 48.8917 2.64005 47.9725 3.32236C47.7738 3.46984 47.5813 3.59956 47.3948 3.71154C46.8888 4.0153 46.3916 4.33038 45.9027 4.6568C45.8816 4.67071 45.8684 4.66593 45.8625 4.64253C45.6262 3.65062 46.0677 2.93317 46.8566 2.3546C47.1801 2.11748 47.5335 1.86298 47.9176 1.59105C48.2917 1.32576 48.5989 1.01469 48.8392 0.657908C48.8407 0.655635 48.8427 0.653785 48.8451 0.652475C48.8475 0.651164 48.8503 0.65047 48.853 0.650392C48.8559 0.650354 48.8586 0.650972 48.8611 0.652166C48.8635 0.653399 48.8655 0.655171 48.867 0.657329Z" fill="white"/>
<path d="M42.5128 12.9362C42.7379 13.6515 43.434 14.095 44.1918 14.2449C45.2082 14.4455 46.1908 14.2899 47.1398 13.7783C47.1824 13.7552 47.196 13.7656 47.1808 13.8096C46.8676 14.7005 46.003 15.1929 45.0397 15.251C43.0009 15.3742 41.5366 14.46 41.0267 12.9692C40.8227 12.3727 40.8327 11.8632 40.6625 11.4377C40.4553 10.9166 40.1776 10.4611 39.8305 10.0714C39.8261 10.0667 39.821 10.0633 39.8146 10.0615C39.8087 10.0596 39.8019 10.0595 39.7955 10.061C39.7896 10.0625 39.7839 10.0657 39.7792 10.0702C39.2305 10.6251 40.2138 11.3773 40.2138 11.3773C40.2138 11.3773 40.533 13.2986 39.8652 13.4083C39.1839 13.2703 37.601 12.7222 37.3396 12.0909C37.0783 11.4597 40.694 7.85202 42.5618 6.33491C43.0463 5.94187 42.9666 5.98176 43.4364 5.61361C43.9415 5.20434 43.4945 5.86063 43.4276 6.28385C43.3304 6.90119 43.7216 7.6265 44.4519 7.98825C45.1205 8.31925 45.815 8.62335 46.0409 9.34793C46.0417 9.35102 46.0421 9.35429 46.0414 9.35749C46.0409 9.36069 46.0393 9.3637 46.0373 9.36632C46.0353 9.36894 46.0329 9.37106 46.0297 9.37252C46.0265 9.37403 46.0233 9.37479 46.0198 9.37484C45.6285 9.37704 45.2126 9.39183 44.8285 9.46485C43.6567 9.68772 42.7359 10.252 42.4355 11.5079C42.2566 12.2556 42.4773 12.8252 42.5128 12.9362Z" fill="white"/>
<path d="M44.514 13.7038C45.2543 14.0408 46.1276 13.7005 46.7978 13.3201C46.8384 13.297 46.8476 13.3051 46.8245 13.3442C46.5878 13.7526 46.0321 14.0051 45.5507 14.0891C44.4793 14.2763 43.447 13.9239 43.2243 12.8123C42.9119 11.2534 44.3546 9.21251 46.2607 10.1056C46.3268 10.1367 46.3236 10.146 46.2508 10.1336C45.4436 9.9969 44.7156 10.1429 44.1873 10.7028C43.8247 11.086 43.6363 11.6156 43.6307 12.1289C43.6239 12.7596 43.8957 13.4228 44.514 13.7038Z" fill="white"/>
<path d="M45.0006 11.0033C44.6592 11.4035 44.3324 11.7739 44.2276 12.2763C44.2269 12.2808 44.2244 12.2852 44.2213 12.2887C44.2181 12.2923 44.2137 12.295 44.2093 12.2966C44.2046 12.2981 44.1997 12.2985 44.195 12.2975C44.1902 12.2967 44.1854 12.2947 44.1818 12.2916C44.1651 12.2781 44.1531 12.2611 44.146 12.2406C44.0659 12.0178 44.0746 11.7959 44.1718 11.5753C44.3126 11.2569 44.6061 10.966 44.9651 10.9391C45.0293 10.9343 45.0412 10.9557 45.0006 11.0033Z" fill="white"/>
<path fill-rule="evenodd" clip-rule="evenodd" d="M24.132 36.6366C25.4641 36.2216 25.8554 34.7694 26.767 33.9197C26.7729 33.9143 26.7793 33.9105 26.7861 33.9074C26.7929 33.9047 26.7993 33.9016 26.806 33.8982C26.8089 33.8966 26.8124 33.8958 26.816 33.8958C26.8196 33.8963 26.8228 33.8974 26.826 33.8993C26.8288 33.9012 26.8307 33.9039 26.8324 33.907C26.8336 33.9101 26.8339 33.9136 26.8331 33.9167C26.7276 34.546 26.4379 35.1359 26.0964 35.697C25.4278 36.795 25.2833 38.7289 26.0964 40.1489C26.7016 40.6407 27.8197 41.8338 27.4479 42.67C26.9833 43.7152 26.0256 44.0154 25.3391 44.1772C24.79 44.3068 24.6001 44.3777 24.5738 44.3969C24.5835 44.8042 24.4239 45.7277 23.7077 46.1627C22.8127 46.7068 22.7051 46.7343 22.1095 46.789C21.6328 46.8329 21.2698 46.8075 21.1479 46.789C20.4801 47.5301 18.9239 49.0067 18.0412 48.9849C16.938 48.9574 16.2122 48.0792 16.2412 47.3928C16.2644 46.8441 17.8586 45.609 18.6528 45.0598C19.0342 44.7269 19.466 44.4367 19.8948 44.1772C20.4325 43.8524 21.0107 43.5075 21.6293 43.1433C22.2767 42.7622 22.941 42.3132 23.4381 41.7637C24.1573 40.9694 24.2804 40.0804 23.8073 39.0965C23.7194 38.9134 23.63 38.7462 23.5391 38.5947C23.5279 38.5762 23.5232 38.5561 23.5251 38.535C23.5476 38.3049 23.565 38.0659 23.5774 37.8182C23.5933 37.4987 23.5852 37.1499 23.553 36.7718C23.493 36.0639 23.3335 35.395 23.0745 34.7649C23.0292 34.6546 22.9857 34.6554 22.9438 34.7664C22.9207 34.8284 22.9179 34.8951 22.9357 34.9664C23.0124 35.2767 23.1338 35.6586 23.0554 35.973C23.0352 36.0528 23.0066 36.0554 22.9694 35.9815C22.6272 35.2956 22.296 34.7109 21.9759 34.2277C21.527 33.5505 20.9121 32.9652 20.1294 32.6626C20.0403 32.6283 20.0338 32.5832 20.1096 32.5273L20.1741 32.4796C20.2589 32.4175 20.3478 32.4114 20.4406 32.4614L20.951 32.737C21.0292 32.7798 21.0605 32.7589 21.0451 32.6754L21.0335 32.6152C21.0176 32.5308 20.9741 32.4623 20.9028 32.4102C20.7515 32.2997 20.5929 32.2225 20.4272 32.179C20.0657 32.0842 19.7265 31.9856 19.4099 31.8827C18.9367 31.7293 18.7357 31.6626 18.709 31.1362C18.709 31.1362 18.2181 31.1404 18.2154 31.1362C17.722 30.3488 16.9541 30.1766 16.1541 30.6506C13.8895 31.9928 10.6496 36.1387 9.99907 36.8263C9.50549 37.3476 8.60545 36.494 8.80868 35.9753C8.99706 35.4943 9.38935 34.6577 9.76679 34.1363C10.0687 33.7194 10.8991 33.7614 11.2184 33.8072C11.2282 33.7794 11.3113 33.4885 11.5668 32.9836C11.8862 32.3524 12.4088 31.7485 12.9314 31.3096C13.3548 30.9539 14.008 30.6999 14.325 30.6506C14.3172 30.614 14.2666 30.4756 14.2959 30.2117C14.3541 29.6902 15.1573 29.0039 15.5445 28.647C16.0186 28.647 17.2082 28.8952 17.9542 29.2713C19.0574 29.8274 19.4682 30.4837 19.7832 30.8976C19.9256 31.0849 19.9671 31.2638 19.9865 31.4468C19.9895 31.4734 19.9865 31.5288 20.0736 31.5015C22.1149 31.2826 23.8418 30.5481 25.5295 29.2713C26.4462 28.5777 35.2504 20.7923 35.9946 20.0042C36.7154 19.2411 37.4054 18.5059 38.0652 17.7983C39.0904 16.6989 40.2817 15.6352 41.6567 14.8738C41.7025 14.8485 41.7145 14.8589 41.6922 14.9046C41.6898 14.9101 41.6795 14.9225 41.6616 14.9419C39.2861 17.5428 28.9409 27.176 26.1375 29.3777C24.6658 30.5339 23.0968 31.5061 21.4307 32.2942C21.4257 32.2965 21.4215 32.2996 21.4181 32.3038C21.4148 32.3077 21.4125 32.3127 21.4114 32.3177C21.4102 32.3227 21.4103 32.3281 21.4117 32.3331C21.413 32.3381 21.4155 32.3428 21.419 32.347C21.6567 32.6191 21.9842 32.6857 22.4015 32.5463C22.8724 32.3886 23.3137 32.1081 23.8091 31.9928C23.8338 31.9871 23.8468 31.9963 23.848 32.0202C23.8561 32.174 23.7034 32.3882 23.6285 32.5231C23.567 32.6345 23.5675 32.7852 23.6302 32.9756C23.6406 33.0068 23.6614 33.0341 23.6898 33.0531C23.718 33.0723 23.7522 33.0823 23.787 33.0815L23.8915 33.0792C23.9824 33.0773 24.0032 33.0403 23.9537 32.9678C23.776 32.7077 23.7606 32.5251 23.9077 32.4206C25.2789 31.4468 26.4558 30.4301 27.5978 29.365C29.3648 27.7175 39.1252 18.9914 41.0316 17.5197C41.4603 17.1886 41.9085 16.8719 42.3759 16.5682C42.3851 16.5621 42.3962 16.5582 42.4074 16.5571C42.4189 16.5559 42.4305 16.5574 42.4409 16.5616C43.3166 16.9058 43.7748 17.6495 44.2134 18.4045C44.2198 18.4153 44.2227 18.4272 44.2215 18.4396C44.2203 18.4515 44.2154 18.4631 44.2071 18.4727C43.4402 19.3452 42.5739 20.121 41.6085 20.7988C40.7691 21.3892 39.912 21.9612 39.0383 22.5153C38.094 23.1138 29.2696 30.7211 28.5161 31.3288C27.6416 32.033 26.8208 32.8762 26.2594 33.8188C25.9167 34.3941 25.6064 34.8951 25.3283 35.321C24.996 35.8288 24.5944 36.2624 24.1232 36.622C24.0972 36.6421 24.1002 36.6471 24.132 36.6366Z" fill="white"/>
<path d="M44.1374 19.6781C44.1374 19.6781 44.4602 19.4912 44.6941 19.413C44.8482 19.3609 44.9419 19.3617 44.9427 19.3625L44.9515 19.3741C44.9582 19.3817 44.9574 19.3891 44.9494 19.396C43.7071 20.4427 42.3676 21.4836 40.9312 22.5187C39.0053 23.9068 29.0923 32.2702 27.2257 33.7247C27.2201 33.7293 27.2145 33.7288 27.209 33.7238C27.2257 33.478 28.0532 32.7138 28.0576 32.7096C30.8147 29.97 44.1374 19.6781 44.1374 19.6781Z" fill="white"/>
<path fill-rule="evenodd" clip-rule="evenodd" d="M22.3869 38.4997C22.3833 38.5155 22.3848 38.5326 22.3912 38.548C22.3976 38.5634 22.4085 38.5764 22.4228 38.5857C22.859 38.8775 23.3264 39.3148 23.453 39.7923C23.655 40.5565 23.0482 41.227 22.4675 41.6999C21.9802 42.0965 21.4611 42.4495 20.9422 42.802H20.9421L20.9419 42.8025C20.3566 43.2002 19.7716 43.5978 19.2327 44.0581C18.8285 44.4033 18.4037 44.7729 17.9581 45.1656C17.4913 45.5787 16.9477 45.9749 16.3845 46.1819C16.2975 46.2139 16.2082 46.2111 16.1169 46.1741C15.4601 45.9074 15.157 45.3332 14.9485 44.7147C14.9426 44.6966 14.9323 44.68 14.9184 44.6662C14.9047 44.6527 14.8878 44.6418 14.869 44.6353C13.9136 44.3004 13.1371 43.7158 12.5393 42.8814C11.8118 41.866 11.3466 40.5812 10.9861 39.3772C10.7708 38.6578 10.5455 37.9263 10.3102 37.1821C10.3044 37.1644 10.3057 37.1467 10.3142 37.1294C10.3332 37.0923 10.3551 37.0573 10.3799 37.0242C11.6415 35.3281 13.0619 33.7488 14.6414 32.2867C14.9797 31.9738 15.3887 31.6246 15.8684 31.2396C16.2341 30.9461 16.6462 30.8238 17.1045 30.8728C17.6915 30.9356 18.1456 31.9064 18.359 32.3623L18.3635 32.3719C18.3866 32.422 18.4326 32.4671 18.4912 32.4791C20.5624 32.9068 22.1453 34.2988 22.4687 36.317C22.5866 37.0512 22.5465 37.7899 22.3869 38.4997ZM18.1596 33.5199C18.9905 33.7107 19.8424 33.9959 20.452 34.5481C21.2441 35.2653 21.7079 35.9648 21.7516 36.9749C21.7695 37.3957 21.741 37.8276 21.6633 38.2423C21.4226 39.5233 20.8993 40.7199 20.0937 41.8317C19.6013 42.5111 18.8656 43.2623 18.0283 43.4965C17.3187 43.695 16.6278 43.3489 16.1464 42.834C15.2034 41.826 14.7772 40.2567 14.7174 38.9048C14.6059 36.3879 15.8735 34.7774 18.0714 33.5322C18.0844 33.525 18.0989 33.5199 18.1141 33.5177C18.1292 33.5157 18.1446 33.5165 18.1596 33.5199Z" fill="white"/>
<path fill-rule="evenodd" clip-rule="evenodd" d="M13.335 14.5147C13.4178 14.4181 13.4972 14.3196 13.5731 14.2194C13.5959 14.189 13.5922 14.1859 13.562 14.2101C13.2771 14.4399 12.986 14.694 12.6887 14.9725C11.8161 15.7903 10.9405 16.6005 10.0618 17.4024C9.38241 18.0224 8.6612 18.5947 7.89822 19.1192C6.91266 19.7963 5.85331 20.2946 4.72021 20.6134C4.71791 20.6141 4.71619 20.6134 4.71499 20.611L4.70978 20.598C4.70774 20.5933 4.70762 20.5879 4.70946 20.5833C4.71129 20.5786 4.71495 20.5748 4.71965 20.5725C5.7341 20.0978 6.69451 19.5663 7.56146 18.9308C7.82702 18.7362 8.09759 18.4892 8.37322 18.1901C8.37709 18.1859 8.37824 18.1808 8.37669 18.1755C8.37478 18.1705 8.37127 18.1662 8.36625 18.1635C8.35696 18.1577 8.34748 18.1573 8.3378 18.1612C7.90463 18.3458 7.50301 18.5793 7.1329 18.8614C6.79033 19.1231 6.42586 19.3917 6.0395 19.6669C5.53608 20.026 4.94377 20.3119 4.31724 20.3355C3.65182 20.3605 3.06358 20.0411 2.5863 19.6083C1.99635 19.0723 1.44413 18.4845 0.703759 18.1392C0.698819 18.1369 0.694674 18.1334 0.691686 18.1288C0.688697 18.1246 0.687064 18.1196 0.686865 18.1142C0.686706 18.1087 0.688021 18.1037 0.69069 18.0992C0.69332 18.0945 0.697264 18.0907 0.702045 18.0883C1.87419 17.4525 3.02238 16.7496 4.14656 15.9792C6.35266 14.4671 8.27469 12.7012 9.91255 10.6816C10.0202 10.5487 10.0051 10.5347 9.86726 10.6393C9.59162 10.8493 9.34002 11.068 9.11239 11.2953C8.68966 11.7176 8.27003 12.1338 7.85351 12.5441C7.43233 12.9594 6.97537 13.3055 6.48255 13.5821C6.4782 13.5845 6.47323 13.5859 6.46816 13.5859C6.46311 13.5859 6.45812 13.5846 6.45375 13.5822C6.44937 13.5798 6.44574 13.5763 6.44327 13.5721C6.44075 13.568 6.43952 13.5632 6.4396 13.5584C6.44541 13.1737 6.95521 12.8498 7.23571 12.6302C7.32626 12.5601 7.53357 12.3514 7.46739 12.2438C7.4642 12.2386 7.45982 12.2343 7.45452 12.2311C7.44926 12.2278 7.44328 12.2258 7.43703 12.225C7.43077 12.2244 7.42444 12.225 7.41854 12.227C7.4126 12.2291 7.40727 12.2324 7.40292 12.2367C6.22572 13.3876 4.83791 14.2838 3.23953 14.9252C2.91206 15.0566 2.56714 15.1829 2.20481 15.304C2.19373 15.3079 2.18401 15.3146 2.17688 15.3234C2.16971 15.3322 2.16536 15.343 2.1644 15.3537C2.16341 15.365 2.16584 15.3761 2.17133 15.3861C2.17687 15.3958 2.18524 15.4039 2.19548 15.4096L2.37203 15.5017C2.54431 15.5919 2.53192 15.6362 2.33486 15.6347C2.07588 15.6316 1.8206 15.6312 1.56895 15.6335C1.50508 15.6339 1.45962 15.6058 1.43248 15.5499C1.31252 15.3015 1.27861 15.0502 1.33089 14.7963C1.39204 14.4988 1.48536 14.1857 1.61078 13.8571C1.67656 13.6844 1.70601 13.4777 1.69904 13.2368C1.69883 13.233 1.69756 13.2291 1.69533 13.226C1.6931 13.2227 1.68996 13.2199 1.68624 13.2181L1.65724 13.2044C1.64406 13.1982 1.63613 13.2018 1.63341 13.2154C1.59855 13.394 1.5413 13.5706 1.46153 13.7451C1.20546 14.305 0.899468 14.8534 0.750813 15.4528C0.649373 15.8617 0.672043 16.2663 0.818745 16.6674C0.83034 16.6991 0.853767 16.7129 0.888988 16.7091C1.60147 16.632 2.19433 16.4089 2.77675 16.032C3.34986 15.6601 3.91543 15.2431 4.54718 15.017C4.56076 15.0119 4.57451 15.0114 4.58842 15.0158C4.59153 15.017 4.5943 15.0187 4.59658 15.021C4.59881 15.0232 4.60045 15.026 4.60128 15.029C4.60216 15.0319 4.6022 15.0351 4.60148 15.0381C4.60076 15.0411 4.59929 15.0437 4.59714 15.0461C3.39054 16.341 1.86897 17.2097 0.0325228 17.6525C0.0285783 17.6533 0.0245148 17.6533 0.0205704 17.6525C0.016586 17.6517 0.0129204 17.6502 0.00973291 17.6475C0.00658532 17.6452 0.00407559 17.6421 0.00240218 17.6386C0.000688928 17.6351 -0.000107835 17.6313 1.16943e-05 17.6275C0.131214 14.333 1.79251 11.4462 3.98687 8.84213C5.27439 7.31466 6.59559 5.92002 7.95049 4.65826C9.98514 2.76391 12.2642 1.12375 14.8424 0.00450475C14.8526 0.000150008 14.8639 -0.00108242 14.875 0.000960068C14.886 0.00304109 14.8961 0.00828186 14.9039 0.0160279C15.1472 0.260279 14.9968 0.525417 14.9115 0.786163C14.8632 0.934918 14.8615 1.08532 14.8696 1.23682C14.8708 1.25621 14.8617 1.2692 14.8424 1.27579C14.3429 1.45197 13.8076 1.5788 13.2786 1.71218C13.269 1.71461 13.2602 1.7192 13.2528 1.72555C13.2455 1.73191 13.24 1.73985 13.2366 1.74872C13.2332 1.75758 13.2322 1.76706 13.2335 1.77638C13.2349 1.78567 13.2387 1.79454 13.2444 1.8022C13.304 1.88163 13.3537 1.96302 13.3936 2.04649C13.4346 2.13358 13.4082 2.19486 13.3141 2.23036C10.4531 3.47311 7.75306 5.15393 5.69166 8.14059C5.42994 8.49243 8.62184 6.52001 9.61119 6.15132C10.7783 5.716 11.2173 5.38338 12.5145 5.25714C12.8919 5.22041 12.6498 6.07906 12.6306 6.13541C12.4078 6.79046 12.1504 7.21511 11.96 7.77941C11.9182 7.90239 11.9393 7.91299 12.0233 7.81125C12.3298 7.43983 12.608 7.03198 12.8577 6.58771C13.0705 6.20909 13.43 5.08499 13.9371 4.98267C14.1044 4.94892 14.3187 4.97642 14.4545 5.04853C14.9349 5.30361 15.3881 5.53966 15.8144 5.75666C16.8491 6.28304 17.7835 7.06967 17.1975 8.27782C17.0976 8.48349 16.9826 8.67126 16.8527 8.84105C16.6126 9.15428 16.3614 9.47704 16.0989 9.80934C15.8376 10.1398 15.6025 10.5438 15.5444 10.9615C15.5362 11.0233 15.5497 11.028 15.585 10.9753C15.9168 10.4816 16.6546 9.37954 16.8271 9.31914C17.0642 9.2361 16.794 9.9806 16.794 9.9806C16.794 9.9806 16.6952 10.2249 16.8985 10.0327C17.9426 8.88109 18.5196 7.46873 18.9726 5.99486C19.0191 5.84337 19.1735 5.73855 19.3373 5.82579C20.2833 6.33241 18.6628 4.69873 19.9539 4.37774C19.9636 4.37539 19.9739 4.37671 19.9826 4.38141C19.9913 4.38615 19.9977 4.3939 20.0004 4.40298C20.1793 4.73564 20.2663 5.03755 20.4191 5.56232C20.818 6.9588 20.6425 7.49516 19.213 7.50441C19.2008 7.50457 19.1888 7.50788 19.1785 7.51397C19.1681 7.52005 19.1598 7.52873 19.1544 7.53898C19.0289 7.77834 18.908 7.97885 18.7914 8.14059C18.44 8.62913 18.1223 9.08568 17.8385 9.51018C17.5633 9.92114 17.3721 10.3205 17.2648 10.7085C17.0875 11.3484 17.1604 11.969 17.4832 12.5698C17.5134 12.6258 17.5204 12.678 17.4925 12.7367C17.1604 13.4432 16.6575 13.9773 16.071 14.5042C16.0583 14.5158 16.0431 14.5246 16.0264 14.5301C16.0098 14.5357 15.9921 14.5377 15.9747 14.5361C15.5984 14.5046 15.2113 14.5292 14.8134 14.6097C13.832 14.8083 13.1381 15.4762 12.6069 16.2659C12.3463 16.6529 12.0637 17.0594 11.7591 17.4857C11.7525 17.4945 11.7482 17.5045 11.7465 17.5153C11.7446 17.5257 11.7454 17.5365 11.7487 17.5469C11.921 18.0914 12.5622 18.1601 12.7317 18.7139C12.7335 18.72 12.7341 18.7262 12.7332 18.7323C12.7325 18.7381 12.7305 18.7443 12.7272 18.7497C12.724 18.7551 12.7196 18.7597 12.7143 18.7635C12.7091 18.7674 12.7032 18.7701 12.6968 18.7717C12.5459 18.8078 12.3849 18.6876 12.2683 18.6063C12.2184 18.5716 12.1717 18.575 12.1283 18.6174C12.0691 18.675 12.0653 18.7331 12.1168 18.7924C12.4565 19.184 12.8797 19.288 13.3884 19.3162C13.8622 19.3416 14.1887 19.5585 14.368 19.9667C14.378 19.9898 14.3703 20.0044 14.3447 20.011C14.1635 20.0588 13.9034 19.8754 13.7606 19.7628C13.7374 19.7447 13.7079 19.7347 13.6775 19.7354C13.5985 19.7374 13.5675 19.7662 13.584 19.8221C13.5855 19.8268 13.5881 19.8311 13.5916 19.8345C13.5951 19.838 13.5995 19.8406 13.6044 19.8426C14.1193 20.0295 14.5268 20.3463 14.8273 20.7926C15.3061 21.504 15.4956 22.2901 15.3957 23.1503C15.388 23.2161 15.4029 23.2208 15.4404 23.1646C16.1221 22.1375 15.4323 21.0365 14.7402 20.1976C14.7019 20.1513 14.7133 20.1332 14.7744 20.144C15.369 20.245 15.7372 20.665 16.1982 20.9883C16.3275 21.0785 16.468 21.1162 16.6198 21.1012C16.6267 21.1005 16.6333 21.0982 16.639 21.0943C16.6447 21.0904 16.6492 21.0854 16.6522 21.0792C16.6552 21.0735 16.6564 21.0665 16.656 21.06C16.6555 21.0534 16.6532 21.0469 16.6494 21.0415C16.2801 20.5143 15.6826 20.1208 15.0508 19.7771C14.4597 19.4553 13.9631 19.1702 13.5609 18.922C13.04 18.6009 12.7849 18.152 12.7332 17.5153C12.8048 16.7295 13.0033 16.318 13.584 15.9885C14.2831 15.6447 14.8646 15.3669 15.6106 15.0927C15.9969 14.9507 16.3479 14.7666 16.6634 14.5405C16.6826 14.5265 16.7008 14.5277 16.7179 14.5438C17.1459 14.9439 17.5018 15.2886 18.0935 15.4362C18.2741 15.4813 18.2944 15.6813 18.1301 15.7503C18.0554 15.7823 17.9797 15.8104 17.903 15.8347C17.8492 15.852 17.8484 15.8709 17.9007 15.8922C18.0923 15.9676 18.2934 15.9842 18.504 15.9415C18.6654 15.9079 18.8275 15.8917 18.99 15.8922C19.0029 15.8917 19.0155 15.8952 19.0265 15.9014C19.0376 15.9076 19.0465 15.9168 19.0526 15.9276C19.0586 15.9384 19.0613 15.9503 19.0605 15.9622C19.0597 15.9745 19.0554 15.9861 19.0481 15.9961L18.8826 16.2251C18.8794 16.2293 18.8773 16.2343 18.8765 16.2393C18.8755 16.2443 18.8758 16.2497 18.8772 16.2547C18.8787 16.2594 18.8812 16.264 18.8848 16.2682C18.8883 16.272 18.8927 16.2751 18.8978 16.2771C19.2792 16.4413 19.6834 16.4228 20.0962 16.3469C20.3943 16.2921 20.691 16.2424 20.9864 16.1981C21.0832 16.1835 21.1759 16.1904 21.2645 16.2185C21.2738 16.2215 21.2823 16.2262 21.2896 16.2324C21.297 16.2386 21.3029 16.2459 21.3071 16.2544C21.3112 16.2625 21.3135 16.2717 21.3139 16.281C21.3143 16.2902 21.3127 16.2995 21.3093 16.308C20.9811 17.1337 20.3308 17.8533 19.6933 18.4467C19.0958 19.0029 18.5191 19.5431 17.9629 20.0677C16.6993 21.2589 15.621 24.1399 15.621 24.1399C15.621 24.1399 15.3017 25.0459 16.0855 24.4694C16.1869 24.079 16.1982 23.1646 17.9629 21.7522C19.7275 20.3397 17.2178 26.3362 15.8533 26.9397C14.4887 27.5428 10.6126 24.7781 9.91431 24.3638C8.33139 23.4247 6.79205 22.3494 5.47221 21.119C5.46787 21.1147 5.46452 21.1101 5.46237 21.1047C5.46022 21.0993 5.45934 21.0935 5.45978 21.0877C5.46022 21.0819 5.46197 21.0766 5.46492 21.0712C5.46787 21.0662 5.47193 21.0619 5.47683 21.0584C6.53402 20.3259 7.58951 19.5678 8.64324 18.7847C10.3515 17.5149 11.9814 16.0979 13.335 14.5147Z" fill="white"/>
<path d="M15.6767 0.657329C14.8958 1.7755 15.6518 2.64005 16.571 3.32236C16.7699 3.46984 16.9625 3.59956 17.1487 3.71154C17.6547 4.0153 18.1522 4.33038 18.641 4.6568C18.662 4.67071 18.6753 4.66593 18.6811 4.64253C18.9175 3.65062 18.4762 2.93317 17.687 2.3546C17.3638 2.11748 17.0102 1.86298 16.6261 1.59105C16.2519 1.32576 15.9447 1.01469 15.7047 0.657908C15.7031 0.655673 15.701 0.653785 15.6986 0.652475C15.6961 0.651164 15.6933 0.65047 15.6906 0.650392C15.6878 0.650354 15.6851 0.650972 15.6827 0.652166C15.6803 0.653399 15.6782 0.655171 15.6767 0.657329Z" fill="white"/>
<path d="M22.0316 12.9362C21.8063 13.6515 21.1101 14.095 20.3523 14.2449C19.3361 14.4455 18.3534 14.2899 17.4043 13.7783C17.3617 13.7552 17.3481 13.7656 17.3636 13.8096C17.6766 14.7005 18.5413 15.1929 19.5045 15.251C21.5433 15.3742 23.0077 14.46 23.5175 12.9692C23.7216 12.3727 23.7116 11.8632 23.8816 11.4377C24.0891 10.9166 24.3665 10.4611 24.7138 10.0714C24.7179 10.0667 24.7233 10.0633 24.7296 10.0615C24.7357 10.0596 24.7423 10.0595 24.7487 10.061C24.7547 10.0625 24.7603 10.0657 24.7651 10.0702C25.3137 10.6251 24.3305 11.3773 24.3305 11.3773C24.3305 11.3773 24.0111 13.2986 24.6789 13.4083C25.3604 13.2703 26.9437 12.7222 27.2047 12.0909C27.466 11.4597 23.8503 7.85206 21.9823 6.33491C21.498 5.94187 21.5778 5.98176 21.1078 5.61361C20.6027 5.20434 21.0497 5.86063 21.1165 6.28385C21.2139 6.90119 20.8227 7.6265 20.0922 7.98825C19.4239 8.31925 18.7294 8.62335 18.5035 9.34793C18.5025 9.35102 18.5023 9.35429 18.5028 9.35749C18.5034 9.36069 18.5048 9.3637 18.5068 9.36632C18.5089 9.36894 18.5115 9.37106 18.5146 9.37252C18.5176 9.37403 18.521 9.37479 18.5244 9.37484C18.9158 9.37704 19.3315 9.39183 19.7159 9.46485C20.8877 9.68772 21.8082 10.252 22.1088 11.5079C22.2878 12.2556 22.0667 12.8252 22.0316 12.9362Z" fill="white"/>
<path d="M20.0318 13.7038C19.2915 14.0408 18.4182 13.7005 17.7481 13.3201C17.7074 13.297 17.6984 13.3051 17.7213 13.3442C17.9583 13.7526 18.5139 14.0051 18.9953 14.0891C20.0666 14.2763 21.0991 13.9239 21.3214 12.8123C21.6338 11.2534 20.1914 9.21251 18.2852 10.1056C18.2189 10.1367 18.2222 10.146 18.2951 10.1336C19.1022 9.9969 19.8303 10.1429 20.3586 10.7028C20.7211 11.086 20.9098 11.6156 20.915 12.1289C20.922 12.7596 20.6502 13.4228 20.0318 13.7038Z" fill="white"/>
<path d="M19.5451 11.0033C19.8865 11.4035 20.2135 11.7739 20.318 12.2763C20.319 12.2808 20.3212 12.2852 20.3244 12.2887C20.3277 12.2923 20.3319 12.295 20.3365 12.2966C20.3411 12.2981 20.3462 12.2985 20.3509 12.2976C20.3557 12.2967 20.3602 12.2947 20.3639 12.2916C20.3806 12.2781 20.3925 12.2611 20.3999 12.2406C20.48 12.0178 20.4713 11.7959 20.3737 11.5753C20.2332 11.2569 19.9394 10.966 19.5806 10.9391C19.5163 10.9343 19.5044 10.9557 19.5451 11.0033Z" fill="white"/>
<path fill-rule="evenodd" clip-rule="evenodd" d="M40.4123 36.6366C39.08 36.2216 38.6887 34.7694 37.7771 33.9197C37.7711 33.9143 37.7648 33.9105 37.758 33.9074C37.7511 33.9047 37.7448 33.9016 37.7381 33.8982C37.7352 33.8966 37.7317 33.8958 37.7281 33.8958C37.7246 33.8963 37.7213 33.8974 37.7181 33.8993C37.7153 33.9012 37.7134 33.9039 37.7117 33.907C37.7106 33.9101 37.7102 33.9136 37.7109 33.9167C37.8165 34.546 38.1062 35.1359 38.4476 35.697C39.1162 36.795 39.2608 38.7289 38.4476 40.1489C37.8424 40.6407 36.7244 41.8338 37.0962 42.67C37.5608 43.7152 38.5186 44.0154 39.2051 44.1772C39.7541 44.3068 39.9441 44.3777 39.9705 44.3969C39.9605 44.8042 40.1202 45.7277 40.8363 46.1627C41.7315 46.7068 41.8391 46.7343 42.4347 46.789C42.9113 46.8329 43.2743 46.8075 43.3962 46.789C44.0639 47.5301 45.6202 49.0067 46.5028 48.9849C47.606 48.9574 48.3319 48.0792 48.3028 47.3928C48.2797 46.8441 46.6856 45.609 45.8912 45.0598C45.5099 44.7269 45.0783 44.4367 44.6492 44.1772C44.1117 43.8524 43.5336 43.5075 42.9149 43.1433C42.2674 42.7622 41.6032 42.3132 41.106 41.7637C40.3869 40.9694 40.2637 40.0804 40.7366 39.0965C40.8246 38.9134 40.914 38.7462 41.0051 38.5947C41.0163 38.5762 41.0211 38.5561 41.0191 38.535C40.9965 38.3049 40.9793 38.0659 40.9666 37.8182C40.951 37.4987 40.959 37.1499 40.9912 36.7718C41.0509 36.0639 41.2108 35.395 41.4697 34.7649C41.5148 34.6546 41.5586 34.6554 41.6 34.7664C41.6235 34.8284 41.6264 34.8951 41.6084 34.9664C41.5319 35.2767 41.4104 35.6586 41.4888 35.973C41.5088 36.0528 41.5375 36.0554 41.5745 35.9815C41.9167 35.2956 42.2479 34.7109 42.5682 34.2277C43.0173 33.5505 43.6321 32.9652 44.4146 32.6626C44.5038 32.6283 44.5102 32.5832 44.4345 32.5273L44.37 32.4796C44.2851 32.4175 44.1962 32.4114 44.1034 32.4614L43.593 32.737C43.5148 32.7798 43.4834 32.7589 43.4989 32.6754L43.5106 32.6152C43.5265 32.5308 43.5699 32.4623 43.6412 32.4102C43.7926 32.2997 43.9512 32.2225 44.117 32.179C44.4783 32.0842 44.8173 31.9856 45.1341 31.8827C45.6074 31.7293 45.8082 31.6626 45.8349 31.1362C45.8349 31.1362 46.3258 31.1404 46.3286 31.1362C46.8222 30.3488 47.59 30.1766 48.3901 30.6506C50.6547 31.9928 53.8944 36.1387 54.545 36.8263C55.0387 37.3476 55.9388 36.494 55.7356 35.9753C55.5471 35.4943 55.1546 34.6577 54.7774 34.1363C54.4753 33.7194 53.645 33.7614 53.3258 33.8072C53.3159 33.7794 53.2327 33.4885 52.9772 32.9836C52.6581 32.3524 52.1353 31.7485 51.6126 31.3096C51.1894 30.9539 50.5361 30.6999 50.2193 30.6506C50.2268 30.614 50.2775 30.4756 50.2479 30.2117C50.1903 29.6902 49.387 29.0039 48.9997 28.647C48.5256 28.647 47.3358 28.8952 46.59 29.2713C45.4867 29.8274 45.0759 30.4837 44.7607 30.8976C44.6186 31.0849 44.5771 31.2638 44.5576 31.4468C44.5544 31.4734 44.5576 31.5288 44.4703 31.5015C42.4292 31.2826 40.7024 30.5481 39.0146 29.2713C38.0979 28.5777 29.2937 20.7923 28.5494 20.0042C27.8287 19.2411 27.1386 18.5059 26.4788 17.7983C25.4536 16.6989 24.2622 15.6352 22.8872 14.8738C22.8415 14.8485 22.8297 14.8589 22.8518 14.9046C22.8545 14.9101 22.8647 14.9225 22.8825 14.9419C25.258 17.5428 35.6033 27.176 38.4067 29.3777C39.8784 30.5339 41.4474 31.5061 43.1133 32.2942C43.1185 32.2965 43.1224 32.2996 43.1261 32.3038C43.1292 32.3077 43.1317 32.3127 43.1328 32.3177C43.134 32.3227 43.1336 32.3281 43.1324 32.3331C43.1312 32.3381 43.1285 32.3428 43.1252 32.347C42.8873 32.6191 42.5598 32.6857 42.1427 32.5463C41.6718 32.3886 41.2303 32.1081 40.735 31.9928C40.7104 31.9871 40.6972 31.9963 40.696 32.0202C40.6881 32.174 40.8407 32.3882 40.9155 32.5231C40.9773 32.6345 40.9765 32.7852 40.914 32.9756C40.9036 33.0068 40.8824 33.0341 40.8542 33.0531C40.8258 33.0723 40.792 33.0823 40.757 33.0815L40.6526 33.0792C40.5617 33.0773 40.541 33.0403 40.5904 32.9678C40.7681 32.7077 40.7832 32.5251 40.6362 32.4206C39.2652 31.4468 38.0883 30.4301 36.9463 29.365C35.1794 27.7175 25.419 18.9914 23.5126 17.5197C23.0837 17.1886 22.6356 16.8719 22.1683 16.5682C22.1589 16.5621 22.148 16.5582 22.1366 16.5571C22.1253 16.5559 22.1138 16.5574 22.1033 16.5616C21.2276 16.9058 20.7695 17.6495 20.3305 18.4045C20.3241 18.4153 20.3214 18.4272 20.3225 18.4396C20.3237 18.4515 20.3287 18.4631 20.3369 18.4727C21.1041 19.3452 21.9704 20.121 22.9354 20.7988C23.775 21.3892 24.6319 21.9612 25.5058 22.5153C26.4502 23.1138 35.2745 30.7211 36.028 31.3288C36.9025 32.033 37.7233 32.8762 38.2847 33.8188C38.6274 34.3941 38.9377 34.8951 39.2159 35.321C39.5481 35.8288 39.9497 36.2624 40.4211 36.622C40.4469 36.6421 40.4438 36.6471 40.4123 36.6366Z" fill="white"/>
<path d="M20.4064 19.6781C20.4064 19.6781 20.0835 19.4912 19.8497 19.413C19.6955 19.3609 19.6019 19.3617 19.6011 19.3625L19.5923 19.3741C19.5857 19.3817 19.5865 19.3891 19.5945 19.396C20.8368 20.4427 22.1762 21.4836 23.6126 22.5187C25.5385 23.9068 35.4515 32.2702 37.3181 33.7247C37.3237 33.7293 37.3293 33.7288 37.3348 33.7238C37.3181 33.478 36.491 32.7138 36.4862 32.7096C33.7291 29.97 20.4064 19.6781 20.4064 19.6781Z" fill="white"/>
<path fill-rule="evenodd" clip-rule="evenodd" d="M42.1586 38.4997C42.1622 38.5155 42.1606 38.5326 42.1543 38.548C42.1479 38.5634 42.1371 38.5764 42.1227 38.5857C41.6865 38.8775 41.2192 39.3148 41.0924 39.7923C40.8904 40.5565 41.4972 41.227 42.0777 41.6999C42.5654 42.0965 43.0842 42.4495 43.6033 42.802L43.6037 42.8025C44.1891 43.2002 44.7739 43.5978 45.313 44.0581C45.717 44.4033 46.1417 44.7729 46.5876 45.1656C47.0542 45.5787 47.5976 45.9749 48.161 46.1819C48.2482 46.2139 48.3375 46.2111 48.4287 46.1741C49.0853 45.9074 49.3885 45.3332 49.5969 44.7147C49.6029 44.6966 49.6132 44.68 49.6271 44.6662C49.6408 44.6527 49.6579 44.6418 49.6766 44.6353C50.632 44.3004 51.4086 43.7158 52.0062 42.8814C52.7337 41.866 53.1987 40.5812 53.5593 39.3772C53.7748 38.6578 53.9999 37.9263 54.2355 37.1821C54.241 37.1644 54.2399 37.1467 54.2314 37.1294C54.2123 37.0923 54.1904 37.0573 54.1657 37.0242C52.9039 35.3281 51.4835 33.7488 49.9041 32.2867C49.5658 31.9738 49.1566 31.6246 48.6773 31.2396C48.3112 30.9461 47.8992 30.8238 47.441 30.8728C46.8541 30.9356 46.4 31.9064 46.1867 32.3623L46.182 32.3719C46.1588 32.422 46.113 32.4671 46.0545 32.4791C43.9831 32.9068 42.4 34.2988 42.0769 36.317C41.9589 37.0512 41.9988 37.7899 42.1586 38.4997ZM46.386 33.5199C45.5548 33.7107 44.703 33.9959 44.0934 34.5481C43.3013 35.2653 42.8376 35.9648 42.7941 36.9749C42.7757 37.3957 42.8045 37.8276 42.8822 38.2423C43.1228 39.5233 43.6459 40.7199 44.4516 41.8317C44.944 42.5111 45.6799 43.2623 46.5171 43.4965C47.2266 43.695 47.918 43.3489 48.3993 42.834C49.342 41.826 49.7682 40.2567 49.828 38.9048C49.9396 36.3879 48.6721 34.7774 46.474 33.5322C46.4613 33.525 46.4465 33.5199 46.4314 33.5177C46.4162 33.5157 46.4007 33.5165 46.386 33.5199Z" fill="white"/>
</g>
<defs>
<clipPath id="clip0_2033_2323">
<rect width="263" height="49" fill="white"/>
</clipPath>
</defs>
</svg>
